<svg width="70" height="94" viewBox="0 0 70 94" fill="none" xmlns="http://www.w3.org/2000/svg">
<g clip-path="url(#clip0_520_534)">
<path d="M33.1589 46.6849C32.2474 43.7682 32.2656 38.1354 32.7943 38.1354C34.3255 38.1354 34.1797 44.862 33.1589 46.6849ZM32.849 55.2891C31.4453 58.9714 29.6953 63.1823 27.6719 66.7188C31.0078 65.4427 34.7813 63.5833 39.138 62.7266C36.8229 60.9766 34.599 58.4609 32.849 55.2891ZM15.6953 78.0391C15.6953 78.1849 18.1016 77.0547 22.0573 70.7109C20.8359 71.8594 16.7526 75.1771 15.6953 78.0391ZM45.2083 29.1667H70V88.9583C70 91.3828 68.0495 93.3333 65.625 93.3333H4.375C1.95052 93.3333 0 91.3828 0 88.9583V4.375C0 1.95052 1.95052 0 4.375 0H40.8333V24.7917C40.8333 27.1979 42.8021 29.1667 45.2083 29.1667ZM43.75 60.4844C40.1042 58.2604 37.6797 55.1979 35.9661 50.6771C36.7865 47.3047 38.0807 42.1823 37.0964 38.974C36.2396 33.6146 29.3672 34.1432 28.3828 37.7344C27.4714 41.0703 28.3099 45.7734 29.8594 51.7708C27.7448 56.8021 24.6276 63.5469 22.4219 67.4115C22.4036 67.4115 22.4036 67.4297 22.3854 67.4297C17.4453 69.9635 8.96875 75.5417 12.4505 79.8255C13.4714 81.0833 15.3672 81.6484 16.3698 81.6484C19.6328 81.6484 22.8776 78.3672 27.5078 70.3828C32.2109 68.8333 37.3698 66.901 41.9089 66.1536C45.8646 68.3047 50.4948 69.7083 53.5755 69.7083C58.8984 69.7083 59.263 63.875 57.1667 61.7969C54.6328 59.3177 47.2682 60.0286 43.75 60.4844ZM68.724 19.1406L50.8594 1.27604C50.0391 0.455729 48.9271 0 47.7604 0H46.6667V23.3333H70V22.2214C70 21.0729 69.5443 19.9609 68.724 19.1406ZM55.2161 65.6797C55.9635 65.1875 54.7604 63.5104 47.4141 64.0391C54.1771 66.9193 55.2161 65.6797 55.2161 65.6797Z" fill="#1B5E9D"/>
</g>
<defs>
<clipPath id="clip0_520_534">
<rect width="70" height="93.3333" fill="white"/>
</clipPath>
</defs>
</svg>
