<svg width="60" height="61" viewBox="0 0 60 61" fill="none" xmlns="http://www.w3.org/2000/svg">
<rect y="0.963135" width="60" height="60" rx="14" fill="#1B4965"/>
<g clip-path="url(#clip0_102_459)">
<g clip-path="url(#clip1_102_459)">
<path d="M14.9125 15.8755H45.0875C46.0879 15.8755 47.0473 16.2729 47.7547 16.9803C48.4621 17.6876 48.8595 18.647 48.8595 19.6474V42.2787C48.8595 43.279 48.4621 44.2384 47.7547 44.9457C47.0473 45.6531 46.0879 46.0505 45.0875 46.0505H14.9125C13.9122 46.0505 12.9527 45.6531 12.2454 44.9457C11.538 44.2384 11.1406 43.279 11.1406 42.2787V19.6474C11.1406 18.647 11.538 17.6876 12.2454 16.9803C12.9527 16.2729 13.9122 15.8755 14.9125 15.8755ZM14.9125 19.6474V42.2787H28.1141V19.6474H14.9125ZM45.0875 42.2787V19.6474H42.749C43.2016 20.6658 43.1073 21.6653 43.1073 21.7785C42.9753 23.0421 42.0889 24.3622 41.7683 24.8337L37.3741 29.6428L43.6354 29.6051L43.6543 31.906L33.8473 31.8494L33.7719 29.9634C33.7719 29.9634 39.524 23.8719 39.8069 23.325C40.0709 22.7969 41.1459 19.6474 38.4868 19.6474C36.1671 19.7417 36.4311 22.0991 36.4311 22.0991L33.5268 22.1179C33.5268 22.1179 33.5456 20.8732 34.2434 19.6474H31.886V42.2787H36.7517L36.7328 40.6567L38.5622 40.6379C38.5622 40.6379 40.2784 40.3361 40.2973 38.6577C40.3727 36.7717 38.7697 36.7717 38.4868 36.7717C38.2416 36.7717 36.4688 36.866 36.4688 38.4125H33.6022C33.6022 38.4125 33.6776 34.5275 38.4868 34.5275C43.3902 34.5275 43.1262 38.337 43.1262 38.337C43.1262 38.337 43.2016 40.6945 41.0328 41.5808L42.0135 42.2787H45.0875ZM24.1914 38.5067H21.3624V27.5683L17.9678 28.6244V26.3047L23.8896 24.1925H24.1914V38.5067Z" fill="white"/>
</g>
</g>
<defs>
<clipPath id="clip0_102_459">
<rect width="45.9092" height="45.9092" fill="white" transform="translate(7.04541 8.00854)"/>
</clipPath>
<clipPath id="clip1_102_459">
<rect width="45.9092" height="45.9092" fill="white" transform="translate(7.04541 8.00854)"/>
</clipPath>
</defs>
</svg>
