<svg width="60" height="60" viewBox="0 0 60 60" fill="none" xmlns="http://www.w3.org/2000/svg">
<rect width="60" height="60" rx="14" fill="#1B4965"/>
<g clip-path="url(#clip0_102_469)">
<path d="M21.2039 19.0721C21.896 16.8916 23.6458 15.088 25.9469 14.1V16.8278C25.9469 17.0965 26.0537 17.3542 26.2437 17.5443C26.4337 17.7343 26.6914 17.841 26.9602 17.841C27.2289 17.841 27.4866 17.7343 27.6766 17.5443C27.8667 17.3542 27.9734 17.0965 27.9734 16.8278V12.7747C27.9734 12.506 28.0802 12.2483 28.2702 12.0583C28.4602 11.8682 28.7179 11.7615 28.9867 11.7615H31.0132C31.2819 11.7615 31.5396 11.8682 31.7296 12.0583C31.9197 12.2483 32.0265 12.506 32.0265 12.7747V16.8278C32.0265 17.0965 32.1332 17.3542 32.3232 17.5443C32.5132 17.7343 32.7709 17.841 33.0397 17.841C33.3084 17.841 33.5662 17.7343 33.7562 17.5443C33.9462 17.3542 34.0529 17.0965 34.0529 16.8278V14.1C36.3875 15.1022 38.1536 16.9423 38.8254 19.1653C38.565 19.3761 38.1303 19.6314 37.4524 19.8787C35.9406 20.4298 33.4045 20.8808 29.4669 20.8808C26.6308 20.8808 24.3521 20.439 22.8139 19.8777C22.0722 19.6071 21.5392 19.3214 21.2039 19.0721Z" fill="white"/>
<path fill-rule="evenodd" clip-rule="evenodd" d="M38.1466 21.7826C39.0434 21.4543 39.7506 21.0612 40.2532 20.6092C40.8277 21.1594 41.1459 21.7643 41.1459 22.4007C41.1459 23.6145 39.9867 24.718 38.096 25.5347C38.1509 26.6319 37.9822 27.7289 37.6001 28.7589C37.218 29.789 36.6306 30.7306 35.8734 31.5266C35.1163 32.3226 34.2052 32.9564 33.1955 33.3895C32.1859 33.8226 31.0987 34.0459 30.0001 34.0459C28.9014 34.0459 27.8143 33.8226 26.8047 33.3895C25.795 32.9564 24.8839 32.3226 24.1268 31.5266C23.3696 30.7306 22.7821 29.789 22.4 28.7589C22.018 27.7289 21.8493 26.6319 21.9041 25.5347C20.0134 24.718 18.8542 23.6145 18.8542 22.4007C18.8542 21.742 19.1947 21.1169 19.8077 20.5525L19.9222 20.6437C20.4734 21.0703 21.2273 21.4563 22.121 21.7816C23.9155 22.4372 26.4364 22.9073 29.4671 22.9073C33.5282 22.9073 36.3258 22.4463 38.1466 21.7826ZM23.9266 26.2247C23.9966 27.7885 24.667 29.265 25.7984 30.3468C26.9297 31.4286 28.4347 32.0324 30.0001 32.0324C31.5654 32.0324 33.0704 31.4286 34.2018 30.3468C35.3331 29.265 36.0035 27.7885 36.0735 26.2247C34.3267 26.6908 32.2394 26.9603 30.0001 26.9603C27.7608 26.9603 25.6735 26.6898 23.9266 26.2247ZM11.7615 48.2387H33.0398V36.5862L31.0133 38.1061V42.0548C30.6812 42.1313 30.3409 42.1664 30.0001 42.1592C29.5188 42.1592 29.1945 42.1085 28.9868 42.0548V38.3311L24.2782 34.6692C18.3679 35.804 11.7615 38.4486 11.7615 42.1592V48.2387ZM18.8542 46.2122H26.9603V41.3283L20.3488 42.4307L22.2497 37.2043C21.098 37.5005 19.9644 37.8625 18.8542 38.2885V46.2122ZM13.788 46.2122H16.8278V39.1995L16.7527 39.239C15.6747 39.8104 14.8864 40.3931 14.3898 40.9412C13.9035 41.4803 13.788 41.8785 13.788 42.1592V46.2122Z" fill="white"/>
<path d="M38.6837 31.672C39.2694 31.0742 40.082 31.677 39.9037 32.4948L39.8773 32.6143C39.7862 33.0311 39.7897 33.463 39.8875 33.8782C39.9852 34.2934 40.1748 34.6814 40.4424 35.0138C40.7099 35.3461 41.0485 35.6142 41.4333 35.7984C41.818 35.9826 42.2392 36.0783 42.6658 36.0783C43.0924 36.0783 43.5136 35.9826 43.8984 35.7984C44.2831 35.6142 44.6217 35.3461 44.8892 35.0138C45.1568 34.6814 45.3464 34.2934 45.4442 33.8782C45.5419 33.463 45.5454 33.0311 45.4543 32.6143L45.428 32.4948C45.2496 31.677 46.0623 31.0751 46.6479 31.6729C47.6693 32.7135 48.2407 34.1139 48.2387 35.572C48.2393 36.5171 47.9994 37.4468 47.5415 38.2735C47.0836 39.1003 46.4229 39.7969 45.6215 40.2978C45.3388 40.4741 45.199 40.8125 45.199 41.1459V46.2122C45.199 46.7496 44.9854 47.2651 44.6054 47.6452C44.2253 48.0252 43.7099 48.2387 43.1724 48.2387H42.1592C41.6217 48.2387 41.1063 48.0252 40.7262 47.6452C40.3462 47.2651 40.1327 46.7496 40.1327 46.2122V41.1459C40.1327 40.8125 39.9929 40.4741 39.7102 40.2978C38.9086 39.7968 38.2477 39.1001 37.7899 38.2731C37.332 37.4461 37.0921 36.5162 37.0929 35.571C37.0929 34.0531 37.6999 32.6761 38.6837 31.672Z" fill="white"/>
</g>
<defs>
<clipPath id="clip0_102_469">
<rect width="49.3311" height="49.3311" fill="white" transform="translate(5.33447 5.33447)"/>
</clipPath>
</defs>
</svg>
