<svg width="60" height="60" viewBox="0 0 60 60" fill="none" xmlns="http://www.w3.org/2000/svg">
<rect width="60" height="60" rx="14" fill="#1B4965"/>
<g clip-path="url(#clip0_102_481)">
<path d="M15.4519 17.549H44.548V39.3711H17.5795L15.4519 41.4988V17.549ZM15.4519 13.912C13.4515 13.912 11.833 15.5486 11.833 17.549L11.8148 50.2822L19.0889 43.0082H44.548C46.5485 43.0082 48.1851 41.3715 48.1851 39.3711V17.549C48.1851 15.5486 46.5485 13.912 44.548 13.912H15.4519ZM19.0889 32.0971H40.911V35.7341H19.0889V32.0971ZM19.0889 26.6416H40.911V30.2786H19.0889V26.6416ZM19.0889 21.186H40.911V24.823H19.0889V21.186Z" fill="white"/>
</g>
<defs>
<clipPath id="clip0_102_481">
<rect width="44.2678" height="44.2678" fill="white" transform="translate(7.86609 9.96313)"/>
</clipPath>
</defs>
</svg>
