<svg width="233" height="63" viewBox="0 0 233 63" fill="none" xmlns="http://www.w3.org/2000/svg">
<path fill-rule="evenodd" clip-rule="evenodd" d="M1.10059 45.4047C1.10059 47.948 5.1053 52.674 8.09809 52.674H16.8914C20.8413 52.674 23.8235 56.1562 23.8235 59.0918C24.3569 59.0918 24.3793 59.0918 24.9444 59.0918C24.9444 56.1243 26.8381 52.6634 31.8877 52.6634H40.5502C43.695 52.6634 47.6131 47.9473 47.6131 45.404C47.6131 30.9109 47.6131 16.4771 47.6131 2.03633L1.10059 2.02698V45.4047Z" fill="#009540" stroke="#3C3C3B" stroke-width="0.731251" stroke-miterlimit="22.9256"/>
<path fill-rule="evenodd" clip-rule="evenodd" d="M42.1791 52.2934C44.4074 51.4749 47.6201 47.7582 47.6201 45.2124V43.4577L31.0772 25.8623L47.6201 8.16586V2.02002H39.9509L24.3402 18.651L8.73068 2.02002H1.1001V8.16648L17.4748 25.8629L1.1001 43.4577V45.3553C1.1001 47.8749 4.40382 51.3196 6.50244 52.2934L24.3402 33.1684L42.1791 52.2934Z" fill="#312782" stroke="#3C3C3B" stroke-width="0.731251" stroke-miterlimit="22.9256"/>
<path fill-rule="evenodd" clip-rule="evenodd" d="M13.4032 25.1436C13.701 25.4025 13.9727 25.7655 14.1409 26.1024C14.0761 26.1411 14.1671 26.1935 14.1796 26.2583C14.9821 26.3881 15.6295 26.9059 16.2121 27.4891C17.0147 27.5153 17.869 27.385 18.4516 27.9171C19.228 28.3201 19.9402 28.8921 20.8331 29.0087C22.141 29.126 23.5386 29.0867 24.8204 28.9825C25.3643 28.9563 25.8173 29.0998 26.3345 29.126C26.5676 29.1647 26.7751 29.2951 26.995 29.3593C28.0175 29.7099 29.2731 29.7099 30.4128 29.6064C31.5774 29.7099 32.7295 29.8528 33.8174 30.1123C34.1016 30.3587 34.4517 30.3836 34.749 30.5914C34.9303 30.7211 35.1247 30.8765 35.2151 31.0973C35.4743 31.3044 35.7073 31.5633 36.0052 31.6937C36.2637 31.7978 36.2251 32.1341 36.4974 32.2376C36.976 32.7429 37.4944 33.2357 38.1667 33.3143C38.4907 33.4572 38.8658 33.4572 39.2416 33.4834C39.6429 33.4572 40.0959 33.5738 40.3931 33.2626C40.5619 33.1846 40.6778 33.0286 40.7819 32.8989C41.0667 32.5495 40.9115 31.9663 40.9371 31.5003C40.5227 30.67 39.6042 30.0493 38.7755 29.6207C38.2963 29.5165 38.0122 29.2046 37.4682 29.2046C36.3416 29.088 35.1764 28.9058 33.9987 29.0487C33.2348 29.0749 32.4977 29.257 31.6945 29.2046L28.1739 29.1791C27.7078 29.0618 27.1776 29.0362 26.7246 28.8141C25.9476 28.476 25.2484 28.1516 24.3942 27.9183C24.006 27.8017 23.6309 27.6201 23.3972 27.244C23.2545 26.9071 23.28 26.4405 23.5654 26.1685C23.9412 25.9864 24.239 25.5983 24.692 25.5983C25.145 25.4168 25.7924 25.5073 26.3233 25.5073C27.0486 25.6763 27.7471 25.8965 28.4076 26.2596C29.0812 26.3631 29.7411 26.7524 30.4533 26.4929C31.4758 26.4929 32.408 26.2334 33.4429 26.2983C34.6599 26.065 35.8251 26.3631 37.042 26.3762C39.9158 26.972 43.6177 28.1391 44.1872 31.6032C44.6146 34.5838 41.339 37.2537 38.4266 36.2818C38.6079 37.099 38.9581 37.8351 39.2553 38.6405C39.4752 38.7833 39.5662 39.0672 39.6958 39.3011C39.9937 39.729 40.3432 40.1825 40.8218 40.3628C41.3658 40.7003 42.1035 40.4926 42.5951 40.9473C42.9971 42.0085 43.3074 43.1245 43.9024 44.1488C43.9672 44.679 42.5303 46.5723 42.2711 47.349H36.1609C35.6039 46.5835 36.6656 44.6927 36.5367 44.9267C36.9766 44.3434 37.5854 43.9017 38.2452 43.7208C38.0246 43.5381 37.8957 43.1363 37.5592 43.1756C36.6918 42.5025 35.6176 42.2436 34.8281 41.4146C34.7371 41.5312 34.582 41.6473 34.582 41.7377C33.8305 42.6323 34.1676 44.0589 33.1837 44.8356C31.9282 45.2897 31.682 46.5842 30.9312 47.2591H19.6554C19.5782 46.5604 19.5127 45.5611 20.3415 44.7052C20.5745 44.4077 20.9502 44.344 21.2219 44.0964C21.3902 43.9398 21.6101 43.9279 21.8176 43.8755C21.8438 43.8107 21.9217 43.7208 21.8307 43.6553C21.326 43.2411 21.015 42.6186 20.562 42.127C20.2125 41.9448 20.0704 41.5044 19.7078 41.3616C19.3451 41.8924 19.0086 42.4245 18.9438 43.0721L18.517 43.5898C17.8696 43.6803 17.2353 44.1338 16.6527 44.4981C15.4357 45.198 15.2937 46.4663 14.9441 47.3477C14.7889 47.4644 14.6076 47.3876 14.3877 47.3876H7.83693C7.86248 46.5586 8.21267 45.689 8.40645 45.4694C8.44509 45.0677 8.85945 44.8861 9.11866 44.6272C9.76607 44.3422 10.3487 43.9386 11.0734 43.8481C11.4877 42.7988 12.6916 42.19 13.1446 41.1532C13.3907 40.0765 13.572 39.0148 13.9988 38.0173C13.4293 37.7703 12.9632 37.2905 12.4454 36.9293C11.9152 36.3062 10.9961 35.8533 10.7238 35.0623L10.4129 34.4403C9.99849 34.1683 9.48069 34.0392 9.1573 33.6113C8.50989 33.6375 7.96592 33.3137 7.38393 33.2089C7.25433 33.2744 7.1378 33.1958 6.99511 33.2613C6.55458 33.3006 6.02431 33.3399 5.63611 33.1447C5.42862 33.222 5.33764 32.9887 5.18311 32.9107C4.60051 32.353 4.8591 31.6413 4.7943 30.8758C4.84601 30.6431 4.98808 30.4223 5.1962 30.2801C5.6492 30.0081 6.29661 30.383 6.6848 30.0474C6.19255 29.9177 5.76572 30.2027 5.24792 30.1385C4.82047 30.1385 4.44535 29.9563 4.17306 29.6064C3.84966 29.2034 4.38055 28.7617 4.03036 28.3843C3.73252 28.3456 3.65463 28.0206 3.51256 27.7748C3.49948 27.3207 3.57736 26.8934 3.99173 26.6214C4.32821 26.531 4.63914 26.3881 5.00117 26.4137C5.28655 26.2321 5.55823 26.0381 5.90779 25.9988C7.12472 26.0637 7.77213 24.6383 9.10496 25.0014C9.73928 25.0787 10.4384 25.1049 11.0983 25.0662C11.3189 24.9234 11.5519 24.7418 11.8236 24.7287C11.9918 24.6252 12.2379 24.677 12.4448 24.6901C12.7688 24.8067 13.1832 24.7936 13.4032 25.1436ZM28.6911 38.444C28.5229 39.0653 28.64 39.7671 28.8083 40.361C28.7173 41.0347 29.0799 41.6454 29.2613 42.2418C28.7696 42.7595 28.2512 43.3428 27.5521 43.7052C27.1252 43.7576 26.6205 43.888 26.2186 44.0427C26.1538 43.2137 26.4261 42.2923 25.6877 41.8519C25.312 41.2568 24.9238 40.646 24.6908 39.9729C24.5873 39.7527 24.4702 39.5319 24.406 39.2992C26.0248 39.2206 27.3452 38.5868 28.6911 38.444Z" fill="#3C3C3B"/>
<path fill-rule="evenodd" clip-rule="evenodd" d="M14.5082 42.9492C14.5082 42.9873 14.5082 43.0135 14.4696 43.0515C14.2496 43.0129 13.9262 43.142 13.7705 42.9492V42.6616C13.8222 42.6878 13.8222 42.6117 13.8353 42.5712L14.5082 42.9492ZM14.2621 41.9374C14.6247 42.2743 15.0777 42.3766 15.5046 42.598C15.6217 42.598 15.7376 42.6117 15.8541 42.6623C15.8417 42.7147 15.7638 42.7409 15.7121 42.7546C15.1288 42.7808 14.5599 42.7147 14.1456 42.3267C14.1325 42.2225 14.0546 41.9511 14.2104 41.885C14.2496 41.8725 14.2621 41.885 14.2621 41.9374ZM31.324 41.6897L31.8157 41.7297C31.4792 41.9505 31.0131 41.8987 30.5857 41.9368V41.6654C30.6642 41.7028 30.6766 41.5993 30.7284 41.5731C30.9358 41.6136 31.2075 41.4714 31.324 41.6897ZM22.9227 41.2113L22.2235 41.8993C22.1332 41.8856 22.0036 41.938 21.965 41.8214V41.6267C22.0815 41.5881 22.1463 41.5232 22.2759 41.5101V41.4452C22.5351 41.4315 22.6772 41.1595 22.9233 41.1345L22.9227 41.2113ZM14.6117 41.0422C14.8709 41.1339 15.1818 41.1208 15.4404 41.2113C15.9844 41.4976 16.7097 41.8089 17.2661 42.2225C16.5408 41.9892 15.6223 41.5999 14.7936 41.7159C14.6509 41.6779 14.5082 41.5731 14.4179 41.4446C14.4048 41.3142 14.3792 41.094 14.4179 40.9256C14.5082 40.9262 14.5599 40.9917 14.6117 41.0422ZM32.5279 41.172C31.9191 41.2107 31.2337 41.0815 30.5857 41.0946C30.4561 41.0422 30.3657 40.9518 30.2623 40.8488L30.2754 40.6798C31.1427 40.6018 31.777 41.0422 32.5279 41.172ZM37.8486 40.3024C37.7452 40.4851 37.6286 40.5376 37.4473 40.6667C37.0585 40.7964 36.8772 41.1339 36.3986 41.0042C36.3469 41.0166 36.3207 41.0042 36.2815 40.9655C36.5407 40.7571 36.9034 40.5376 37.2006 40.4852C37.4729 40.5638 37.5377 40.2918 37.8486 40.3024ZM23.104 40.1739C23.1302 40.2525 23.0392 40.3167 23.0006 40.3685C22.7544 40.4976 22.4952 40.7702 22.2628 40.9387C22.0036 40.9387 21.9257 41.094 21.6927 41.1333H21.3948C21.3045 41.0416 21.3045 40.9125 21.1749 40.8607C21.3306 40.7178 21.5631 40.8725 21.7581 40.7958C22.2497 40.7447 22.7152 40.4983 23.104 40.1739ZM15.8417 40.4721C16.1657 40.459 16.3339 40.8619 16.6829 40.8619C16.9421 41.1595 17.2399 41.2886 17.5509 41.4833V41.5481C16.6312 40.9518 15.5825 40.8351 14.6247 40.3947C14.6509 40.2911 14.6509 40.1857 14.7026 40.1096C15.1556 40.0703 15.5563 40.1364 15.8417 40.4721ZM22.1587 39.8114C21.8223 40.0965 21.2135 39.8245 20.9294 40.1364C20.8122 40.1102 20.8253 40.2394 20.7474 40.2656C20.5274 40.2656 20.32 40.2656 20.1648 40.1364C20.0607 40.1601 19.9841 40.0709 19.9448 39.9936C20.1779 39.9936 20.3978 39.9412 20.6309 39.8507C21.1356 39.8114 21.6534 39.7846 22.1581 39.721L22.1587 39.8114ZM37.6542 39.3835C37.6542 39.3972 37.6673 39.4103 37.6804 39.4234C37.4342 39.5139 37.1364 39.5663 36.9034 39.7216C36.5924 39.799 36.3725 40.0441 36.1008 40.1745C35.8291 40.303 35.5313 40.1495 35.2465 40.1233V40.0585C35.6995 39.8894 36.2042 39.7091 36.6572 39.4883C37.0068 39.4733 37.3183 39.4103 37.6542 39.3835ZM31.2854 39.4995C31.6611 39.5525 32.0755 39.6162 32.4251 39.7466C32.5416 39.9412 32.9167 39.8638 33.1242 40.0709C32.1011 39.6424 31.0393 40.2269 30.0822 39.7216C30.0305 39.6305 30.0305 39.4234 30.1987 39.3573C30.5732 39.3835 30.9358 39.3972 31.2854 39.4995ZM16.2947 39.255C16.7608 39.5532 17.2007 40.0054 17.6412 40.2918C16.7738 39.9805 15.7775 39.5139 14.8578 39.3573C14.8447 39.1121 15.0391 39.0984 15.0653 38.8657C15.1301 38.7622 15.2722 38.8657 15.35 38.8925C15.6859 38.9949 15.9707 39.1633 16.2947 39.255ZM30.8841 38.5806C31.4406 38.7098 32.0107 39.0354 32.5927 39.1889C31.8549 39.2151 31.2337 38.8657 30.4567 38.9699C30.3271 38.8788 30.1333 38.9175 30.0423 38.7229C30.0685 38.6193 30.0161 38.5538 30.0816 38.5027C30.3794 38.4771 30.5987 38.6193 30.8841 38.5806ZM16.5277 38.6967C16.8517 38.852 17.1365 39.0348 17.4861 39.1514L17.4599 39.1639C18.0294 39.6168 18.6382 40.0971 19.2333 40.4858C19.156 40.8364 18.9092 41.2113 18.6506 41.5226C18.4824 41.8326 18.4301 42.1844 18.3528 42.5331C18.2625 42.5718 18.2494 42.676 18.2107 42.754C17.1876 43.0129 15.9707 44.0496 15.2591 44.7614C15.1419 45.0602 14.8958 45.3079 14.7406 45.5792C14.7282 45.9024 14.5469 46.1376 14.5213 46.4476L9.00618 46.4738C8.95446 46.1232 9.14887 45.9423 9.35574 45.6435C9.75703 45.1769 10.2748 45.0234 10.7671 44.7751C11.0394 44.6585 11.3628 44.6847 11.6344 44.5955C12.2949 43.6485 13.0583 42.8444 13.8353 41.9374C13.887 41.7303 14.0297 41.5737 14.1076 41.3934C14.3014 40.472 14.5475 39.4739 14.8584 38.5806C14.7805 38.2051 15.2472 38.4247 15.4279 38.3985C15.7769 38.5282 16.1651 38.5931 16.5277 38.6967ZM37.2267 38.3723C37.046 38.5669 36.6965 38.3604 36.4896 38.6337C36.0485 38.8788 35.6085 39.1128 35.1948 39.4502C34.8583 39.5407 34.6384 39.3317 34.3536 39.2294C34.6253 39.0728 35.0652 39.0604 35.2465 38.8015C35.8808 38.5675 36.5413 38.386 37.2267 38.3087V38.3723ZM22.1587 38.1658C21.874 38.4509 21.2652 38.4122 20.9674 38.6836C20.4496 38.827 20.2689 39.4502 19.7511 39.6424C19.4918 39.6561 19.1554 39.7328 18.974 39.4877C18.8831 39.4615 18.7285 39.4496 18.7285 39.3573C19.0133 39.3835 19.2981 39.2675 19.5697 39.1633C19.6993 39.0204 19.9062 38.9431 20.0875 38.8651V38.8002C20.3985 38.6436 20.6571 38.5139 21.0328 38.4496C21.4079 38.3604 21.7705 38.2294 22.1587 38.1658ZM36.6965 37.6468C36.36 37.8158 35.9195 37.7896 35.5961 38.0367C34.9873 38.1396 34.6514 38.736 34.0557 38.8395C34.0034 38.7229 33.8096 38.8133 33.7186 38.7497C33.6152 38.6967 33.4594 38.6443 33.447 38.5145C34.0944 38.6443 34.3791 37.9574 34.9356 37.8676C35.5437 37.8283 36.1008 37.6468 36.6959 37.5688L36.6965 37.6468ZM21.5506 37.3105C21.3562 37.401 21.201 37.4665 20.9549 37.4927C20.2813 37.8682 19.6084 38.386 18.9871 38.8788C18.65 39.0354 18.2618 38.9699 18.0157 38.7098C17.964 38.6967 17.964 38.6449 17.964 38.6075C18.1067 38.6449 18.197 38.5544 18.3005 38.5151C18.9223 38.192 19.4009 37.7647 20.0875 37.4927C20.5405 37.4528 21.0714 37.3367 21.5506 37.3105ZM35.8291 36.8439C34.6253 36.7666 34.1847 38.2956 32.9292 37.9712C32.7734 37.8944 32.541 37.945 32.4114 37.842C32.6706 37.673 33.1236 37.8027 33.3435 37.4534C34.133 37.1159 34.9225 36.8177 35.8291 36.8053V36.8439ZM19.8931 36.5975C19.738 36.688 19.5174 36.7142 19.427 36.8826C19.3753 36.8957 19.2974 36.8695 19.2582 36.8957C18.8307 37.207 18.6108 37.8015 18.1061 38.0753C17.7434 38.2294 17.3546 38.0753 17.0056 37.9705C17.0056 37.92 17.0312 37.8801 17.0704 37.8801C17.291 37.7772 17.6792 37.6462 17.9253 37.4659C18.1198 37.3492 18.3653 37.1153 18.5597 36.9986C18.961 36.766 19.4009 36.5445 19.9062 36.4547C20.0096 36.4933 19.8931 36.5451 19.8931 36.5975ZM16.9421 35.3137C16.7346 35.7685 16.567 36.222 16.385 36.6874C16.3071 36.9481 16.2037 37.1808 15.9837 37.3742C15.932 37.4004 15.8541 37.3742 15.828 37.4528C15.6211 37.5563 15.5688 37.2713 15.3619 37.3499C15.7762 36.9481 16.0224 36.5071 16.4878 36.0654C16.4617 35.8465 16.6692 35.7161 16.7084 35.5214C16.8119 35.4952 16.838 35.3524 16.8897 35.2875L16.9421 35.3137ZM15.8417 34.5764C15.7507 34.9525 15.6342 35.3674 15.5307 35.7423C15.4136 35.7285 15.3625 35.8596 15.246 35.8072C14.9606 36.0922 14.8958 36.494 14.611 36.8053C14.5462 36.7803 14.5076 36.8308 14.4814 36.857C14.2098 36.8832 13.8857 36.8832 13.7692 36.5982C14.0284 36.5595 14.1063 36.3511 14.3387 36.2226C14.7924 35.7423 15.2323 35.1983 15.6984 34.5895C15.8018 34.4472 15.8666 34.2788 15.9831 34.149C15.9065 34.2782 15.9707 34.4984 15.8417 34.5764ZM32.8644 35.469C33.8096 35.5352 34.8066 35.469 35.583 35.9631C35.674 36.0798 35.8291 36.0392 35.9325 36.1434C34.9748 36.0392 33.9779 36.1958 33.0457 36.2731C32.6313 36.0916 32.2562 35.8203 31.8549 35.6375C31.7253 35.5726 30.8449 33.8627 30.9221 34.0056C31.6867 34.849 31.8288 35.1453 32.8644 35.469ZM14.5338 33.5271C14.4434 34.0442 14.0291 34.4472 13.8216 34.9257C13.6664 35.1584 13.5885 35.4191 13.3686 35.6256C13.2651 35.6381 13.1742 35.6905 13.0576 35.6643C13.0059 35.5994 12.8632 35.6381 12.786 35.5857C12.7212 35.4952 12.6433 35.3929 12.5654 35.3137C12.9542 35.1584 13.2514 34.9257 13.6271 34.7055C14.0409 34.3549 14.2228 33.9139 14.4683 33.5265L14.5338 33.5271ZM20.7474 33.4485C21.097 33.7211 21.2783 34.1621 21.654 34.3686C21.874 34.5502 21.9257 34.9001 21.8615 35.1715C21.7836 35.3929 21.5898 35.5732 21.6154 35.8334C21.512 35.8209 21.512 35.6905 21.421 35.6387L21.3562 35.0692H21.3693C21.3817 34.4341 20.8122 33.9937 20.6832 33.4491L20.7474 33.4485ZM35.0135 32.9432C35.1038 33.3711 35.1948 33.8902 35.3761 34.3162C35.1948 34.1484 35.0396 33.9407 34.8321 33.8116C34.2246 33.4092 34.3274 32.6974 34.0557 32.1391L34.0296 31.9838C34.3536 32.2695 34.8708 32.3992 35.0135 32.9432ZM26.6246 31.8809C26.819 32.2171 27.0134 32.6188 27.2203 33.0206C27.2464 33.2932 27.3112 33.5907 27.4147 33.8371C27.4147 34.5246 27.9325 34.9781 28.0745 35.6381C28.1132 35.9369 28.0614 36.1964 27.958 36.4291C27.9194 36.1322 27.8029 35.8209 27.6602 35.5483C27.6215 35.1852 27.2327 34.9525 27.0258 34.6674C26.7928 34.3562 26.8183 33.9413 26.7666 33.5658C26.6894 32.9944 26.728 32.4635 26.5853 31.8815L26.6246 31.8809ZM23.104 31.894C23.1426 32.282 23.3501 32.529 23.557 32.9045C23.9196 33.7473 24.101 34.6924 23.8548 35.6381C23.7645 35.9631 23.6611 36.2607 23.6218 36.5713C23.5439 36.013 23.6735 35.353 23.5053 34.8228C23.3495 33.708 22.9869 32.6837 22.9613 31.5827C23.104 31.5951 23.0392 31.8035 23.104 31.894ZM33.2787 31.9844C33.5504 32.7105 33.8227 33.4753 34.3274 34.0973C33.8738 33.8122 33.5249 33.5527 33.0588 33.2545C32.8126 32.6319 32.3983 32.1135 32.0232 31.5047C31.9845 31.4529 31.8805 31.4785 31.8549 31.388C32.4244 31.3756 32.8905 31.5951 33.2787 31.9844ZM30.8455 31.4005C31.0524 31.5303 31.5833 31.7255 31.5446 32.088C31.5577 32.5421 31.7908 32.917 31.8556 33.32C31.9073 33.5015 32.0624 33.67 32.1403 33.8247C32.2568 33.864 32.3347 34.0455 32.4643 34.0455C32.4643 34.2008 32.6457 34.1104 32.6326 34.2663C32.7622 34.3437 32.8656 34.4996 33.0083 34.5127C32.9952 34.7074 33.2027 34.7454 33.2675 34.9014C32.6718 34.5776 32.1023 34.1503 31.5197 33.7486C31.377 33.476 31.0144 33.204 30.9894 32.8415C30.7819 32.5165 30.6654 32.1672 30.5489 31.8054C30.5489 31.7923 30.018 31.3375 30.0311 31.2602C30.3663 31.1672 30.5732 31.388 30.8455 31.4005ZM28.955 31.2976C29.1756 31.4005 29.3824 31.5565 29.6024 31.6862C29.9002 31.8035 29.641 32.1915 29.8354 32.3599C29.6927 33.0212 30.0822 33.6949 30.0822 34.3424C30.0822 34.5246 30.0946 34.7966 30.0305 35.0031C29.8105 34.4984 29.6547 33.902 29.279 33.4622C29.1108 32.8652 29.0466 32.2302 28.8391 31.6737C28.7095 31.4404 28.4247 31.4005 28.3344 31.1554C28.5799 31.1161 28.7089 31.3232 28.955 31.2976ZM27.6215 31.1672C28.0876 31.4142 28.1007 32.0231 28.282 32.4379L28.5406 33.436C28.7095 33.824 28.9681 34.0973 29.1363 34.4984C29.1625 34.9263 29.059 35.353 29.2404 35.781L29.1494 35.7685C29.059 35.4697 28.9033 35.1846 28.8385 34.8602C28.7612 34.7186 28.5799 34.5377 28.4634 34.3955C28.049 33.7854 27.6477 33.2027 27.6346 32.4379C27.4408 31.894 27.1561 31.4398 26.7803 30.9988L26.5859 30.9208C27.0003 30.8565 27.2726 31.0899 27.6215 31.1672ZM10.0549 32.2439C9.7832 32.3082 9.5109 32.5421 9.1875 32.4641C9.66667 32.0368 10.0549 31.5571 10.392 31.0131L10.5858 30.7012C10.5727 31.2839 10.3789 31.8035 10.0549 32.2439ZM20.9418 30.481C21.5631 30.5977 22.2497 30.5977 22.8965 30.5459C23.2853 30.4155 23.777 30.481 24.1913 30.4935C24.6057 30.5322 25.0331 30.5459 25.3952 30.7143C25.602 30.7143 25.7186 30.9738 25.9261 30.9607C26.2756 31.3369 26.2881 31.8821 26.237 32.3999C25.7703 33.3468 26.8196 33.9419 26.4569 34.9007C26.2632 34.6281 26.3404 34.1235 26.0164 33.9026C26.0164 33.7729 25.8999 33.6438 25.7834 33.5527C25.3945 32.9569 25.8089 32.2695 25.7441 31.5833C25.5117 31.3363 25.5117 30.8703 25.0194 30.9607C24.4499 31.4791 24.6182 32.4772 24.7864 33.126C24.8774 33.3468 24.8774 33.67 24.9808 33.9419C24.9291 34.1628 24.9291 34.4086 24.8119 34.6163C24.825 34.9931 24.6182 35.3543 24.7085 35.7055C24.6306 35.1596 24.6823 34.5121 24.6699 33.9026C24.139 32.9438 23.8025 32.1666 23.2716 31.2595C23.0255 30.9345 22.9869 31.0649 22.7538 31.0262C21.783 32.2832 23.3102 33.514 22.8317 34.9007C22.7276 34.4217 22.598 33.9157 22.3787 33.476C22.0802 33.2164 22.1457 32.8147 21.9513 32.4909C21.8734 32.1666 21.9774 31.7268 21.783 31.4542C21.7699 31.2595 21.5892 31.1685 21.4334 31.0518L21.2004 30.9869C21.006 31.0905 20.9798 31.272 20.8633 31.4149C20.7854 31.9588 20.7082 32.5689 21.006 33.048H20.9412C20.7854 32.9438 20.8247 32.7748 20.6826 32.6325C20.4882 32.0237 20.5268 31.2982 20.2938 30.637C20.2682 30.3781 19.9442 30.4823 19.8794 30.2489C20.2302 30.3506 20.5667 30.4685 20.9418 30.481ZM13.7574 30.2215C13.6664 30.5197 13.5499 30.7655 13.4334 31.0506C13.1742 31.6351 12.6177 32.1266 12.242 32.6712L11.5167 33.3705C11.3098 33.4747 11.012 33.4616 10.8176 33.3967C10.6624 33.2794 10.468 33.2152 10.3776 33.0854C10.8051 32.9825 11.2188 32.8908 11.5946 32.645C12.0737 32.2433 12.5398 31.7386 12.928 31.2714C13.0963 30.8696 13.4197 30.6226 13.6527 30.2608C13.6926 30.2477 13.7187 30.209 13.7574 30.2215ZM18.8058 29.8584C19.0519 30.0406 19.3759 30.2477 19.4663 30.5715C19.5704 31.0774 19.2463 31.5047 19.1036 31.9582C19.1036 32.4385 19.4277 32.7879 19.4663 33.2545C19.389 34.0062 19.0519 34.6412 18.7154 35.2769C18.6376 36.0536 17.8095 36.3511 17.4854 37.0124H17.4206C17.615 36.3243 18.3659 35.9494 18.4824 35.2364C18.5989 34.6668 18.7285 34.0966 18.8189 33.5009C18.8189 33.3194 18.6637 33.1896 18.6376 33.0206C18.5335 32.9557 18.4045 32.8908 18.2618 32.9426C17.9895 33.0599 17.7827 33.267 17.5882 33.5009C17.5621 33.2539 17.7957 33.0985 17.835 32.8646C18.0936 32.6444 18.1328 32.3331 18.4045 32.126C18.5341 31.8278 18.521 31.4779 18.6762 31.1928C18.7024 30.753 18.741 30.2471 18.7148 29.8578L18.8058 29.8584ZM18.1846 29.4187C18.2232 29.5615 18.4301 29.5996 18.3921 29.7942C18.4961 29.9108 18.3659 30.093 18.3528 30.209C17.8481 30.831 17.5247 31.6737 17.1745 32.3861C17.162 32.7742 16.8511 33.1254 16.709 33.5009C16.6312 33.6431 16.4754 33.7598 16.3333 33.7723C16.696 32.8403 16.9676 31.8291 17.4075 30.8703C17.4979 30.5459 17.6798 30.1448 17.4979 29.8073C17.3297 29.7555 17.2649 29.6258 17.1228 29.5353C17.0318 29.977 16.7601 30.3394 16.7084 30.8572C16.5396 31.4666 16.2162 31.9975 15.9445 32.5421C15.8149 32.9176 15.5818 33.2033 15.3233 33.514H15.2454C15.4784 33.0605 15.5949 32.5558 15.8018 32.0886C15.8666 31.791 15.97 31.5702 16.0479 31.2464C16.061 31.1167 16.0348 30.9869 15.9831 30.8703C15.6591 30.7917 15.6722 31.2982 15.3619 31.2202C15.2709 30.9869 15.4784 30.8703 15.4784 30.6494C15.699 30.1323 15.8672 29.5877 16.1651 29.1192C16.5919 28.7811 17.2524 28.9633 17.6929 29.1192L18.1846 29.4187ZM8.03538 29.2103C8.15252 29.3132 8.2167 29.418 8.33385 29.5989C8.51455 29.7811 8.50209 30.0793 8.59244 30.2989C8.5538 30.6488 8.44974 30.9988 8.15252 31.2196C8.15252 31.3363 8.04846 31.4529 7.95811 31.4922C7.66027 31.5696 7.37488 31.6737 7.06458 31.6868C6.81845 31.7261 6.49443 31.5696 6.22276 31.5696V31.5047L7.02594 31.4529C7.36304 31.1672 7.90639 31.1672 8.04909 30.6488C8.1008 30.2477 8.26904 29.6513 7.78987 29.3924C7.54375 29.1704 7.28516 28.9895 6.96114 28.9508C6.92251 28.9115 6.92251 28.8728 6.93497 28.8466C7.32379 28.9371 7.6989 29.0157 8.03538 29.2103ZM9.26539 28.7287C9.31711 28.8329 9.395 28.9233 9.48535 29.015C9.55015 29.4311 9.58879 29.846 9.40746 30.2477C9.25169 30.4548 9.04481 30.7786 8.83794 30.9863L8.79868 30.9476C8.87657 30.4935 9.14825 30.0793 9.04481 29.5871C8.86349 29.3662 8.83794 29.0537 8.59181 28.9109C8.30705 28.6638 7.91886 28.5728 7.55621 28.4424C7.51757 28.5466 7.34934 28.4686 7.25836 28.4948V28.4037C7.33625 28.4168 7.46523 28.4168 7.50449 28.3388C7.91886 28.3918 8.28088 28.1061 8.65599 28.3388C8.75943 28.365 8.8504 28.4299 8.96692 28.4424L9.26539 28.7287ZM15.3625 28.521C15.5307 28.7811 15.5438 29.2228 15.4398 29.5085C15.4784 29.7162 15.2971 29.8329 15.3233 30.0406C15.155 30.1965 15.1419 30.481 14.9861 30.675C14.7924 30.6488 14.9344 30.4155 14.8696 30.2989C14.5718 30.8958 14.0926 31.4005 13.8079 31.9969C13.7175 32.0749 13.6782 32.2177 13.5493 32.2177C13.4845 31.8291 13.9119 31.5696 13.8988 31.1672C14.0284 31.1285 13.9898 30.8696 14.1188 30.7536C14.1319 30.3506 14.4428 30.0924 14.4683 29.6775C14.6889 29.2752 14.598 28.7287 14.6241 28.2602C14.5076 28.1573 14.5724 27.9882 14.4559 27.8847H14.5469L15.3625 28.521ZM10.754 27.8073C10.8836 28.0144 10.9609 28.2739 11.1684 28.4686C11.1815 28.6782 11.2718 28.9633 11.3366 29.1192H11.4276C11.3241 29.6389 11.5441 30.2096 11.3241 30.6756C11.2332 30.8703 11.2593 31.1423 11.078 31.272L11.0132 31.1809C11.207 30.6488 11.0911 29.9894 10.9484 29.4567C10.9484 29.3662 10.8581 29.34 10.7802 29.3138C10.4954 29.5871 10.3147 29.9246 10.1458 30.2483C10.081 30.2995 9.97761 30.2483 9.92589 30.3263C9.96452 30.1572 10.0424 30.1055 10.0941 29.9632C10.1072 29.7424 10.1328 29.5216 10.2499 29.34C10.2885 28.8597 10.3409 28.287 10.3147 27.8585L10.4699 27.6383C10.521 27.7418 10.6636 27.7418 10.754 27.8073ZM14.0291 27.7418C14.0291 28.2484 13.6402 28.5846 13.6147 29.0799L13.3299 29.6775C12.6046 30.209 12.3199 31.1416 11.6725 31.7773C11.5167 32.01 11.2195 32.2689 10.9472 32.3206C11.3615 31.9963 11.6469 31.5041 11.8924 31.0637C12.0607 30.428 12.113 29.7287 12.3199 29.118C12.5922 28.8965 12.8252 28.6108 12.9934 28.312C13.0452 28.2858 13.0844 28.3382 13.0975 28.3775L13.0589 28.9626C13.1368 28.9495 13.1754 29.0668 13.2402 29.0013C13.3698 28.8716 13.3443 28.7025 13.4346 28.584C13.4084 28.234 13.4215 27.8323 13.6546 27.5603C13.8353 27.4954 14.0291 27.5216 14.0291 27.7418ZM7.3107 27.6383L7.34996 27.7032C6.71501 28.0668 6.06823 28.365 5.4339 28.8204C5.4339 28.7418 5.35601 28.5597 5.4987 28.5216C6.13303 28.287 6.44396 27.2889 7.25961 27.5222L7.3107 27.6383ZM12.346 26.6015C12.333 26.7443 12.2812 26.8741 12.2943 27.0294C12.2033 27.2372 12.0351 27.3145 11.9703 27.5091C11.8538 27.652 11.7242 27.7163 11.569 27.808C11.5298 27.4062 11.9703 27.1211 11.7503 26.745C11.6469 26.6021 11.5946 26.4593 11.4781 26.3563C11.5167 26.1873 11.7503 26.2653 11.9055 26.2266C12.1005 26.2777 12.3205 26.3807 12.346 26.6015ZM13.0452 26.6664C13.0321 26.8485 13.0713 26.9908 13.1486 27.1336C12.9679 27.5091 13.0452 28.1186 12.5922 28.3781H12.2943C12.1903 28.2864 12.113 28.2091 12.0874 28.0531C12.2943 27.5865 12.6046 27.1461 12.6439 26.589C12.6046 26.4206 12.5791 26.2653 12.5143 26.0962C12.89 26.0837 12.8638 26.4586 13.0452 26.6664ZM12.8258 25.5647C13.1231 25.9016 13.5119 26.1998 13.525 26.6533C13.4988 26.6664 13.4602 26.6408 13.434 26.6795C13.5374 26.6926 13.5119 26.8092 13.5374 26.8616C14.0552 27.0681 14.664 27.0045 15.0516 27.4836C15.4404 27.6133 15.7127 28.0668 16.0878 28.2608C16.6704 28.3132 17.3047 28.249 17.8612 28.3918C18.4182 28.8073 19.0395 29.093 19.6476 29.4442L20.9038 29.8079C22.2759 29.9508 23.6866 29.821 25.0593 29.7692C25.9398 29.743 26.8196 30.0425 27.6352 30.2876C28.5288 30.4823 29.5775 30.4305 30.5221 30.3787C31.1047 30.4305 31.739 30.4829 32.2824 30.5733C32.7098 30.6507 33.1497 30.7025 33.551 30.7935V30.8584C34.6128 30.9495 34.781 31.947 35.6877 32.3493C35.778 32.4404 35.778 32.6475 35.9332 32.6475C36.3089 33.0755 36.7619 33.373 37.1769 33.7498L38.4187 34.1777C39.0668 34.3194 39.8432 34.2682 40.503 34.2289C40.7105 34.0598 40.9567 33.9307 41.1891 33.8927C41.267 33.5683 41.6683 33.5552 41.7075 33.2052C42.1474 32.8802 42.0702 31.5459 41.915 31.1697C41.8764 30.9108 41.5785 30.7561 41.5785 30.4835C40.9573 29.7961 40.2968 29.2908 39.4942 28.8354C39.1185 28.6663 38.8724 28.5609 38.4194 28.3806C37.4747 28.2378 36.5039 28.1336 35.5331 28.0556C34.2514 28.0038 33.151 28.2378 31.9085 28.2633H28.5169L27.3642 28.0438C27.1187 27.9396 27.0794 27.9009 26.847 27.7711C26.1093 27.5116 25.4226 27.1367 24.6331 26.9939C24.5421 26.9159 24.4393 26.8379 24.3353 26.7861C24.4001 26.5659 24.6848 26.6302 24.7889 26.41C24.9833 26.4362 25.0998 26.2933 25.2681 26.2933L26.3815 26.3064C27.0676 26.4611 27.715 26.7082 28.3362 27.0319C29.1388 27.1486 29.9158 27.5116 30.7701 27.279C32.1808 27.0968 33.6052 27.0843 35.029 27.0319C35.922 27.1099 36.841 27.123 37.7084 27.2659C39.9092 27.8105 42.6148 28.7836 43.3656 31.1703C44.0909 33.7111 41.3847 36.0692 38.8344 35.4223C38.2131 35.3699 37.6822 35.1484 37.1127 34.955C37.1514 35.5389 37.5794 36.0423 37.7988 36.6268C37.9932 37.5464 38.3683 38.2725 38.7185 39.1664C39.0942 39.5819 39.379 40.152 39.8313 40.5276C39.9223 40.9817 40.4532 40.8264 40.6993 41.1489C41.1399 41.3435 41.6701 41.409 42.1618 41.5126C42.1618 41.8357 42.3175 42.0827 42.3431 42.3934C42.5244 43.0547 42.9001 43.6385 43.1849 44.3254C42.9132 45.0259 42.1748 45.6335 41.9935 46.4251L37.1127 46.4501C37.1258 45.8144 37.3588 45.2318 37.9028 44.8569C38.511 44.5449 39.1067 44.2075 39.8444 44.195C39.8961 44.1694 39.8575 44.117 39.8706 44.0777C39.7279 43.9099 39.5597 43.7408 39.4955 43.5337C39.2238 43.2237 38.8612 42.8993 38.6412 42.5481C37.5663 42.0827 36.6603 41.3959 35.6634 40.7996C35.4172 40.6305 35.3394 40.3716 35.1325 40.177C34.5623 39.7353 34.0059 39.3099 33.4887 38.726C32.6469 38.1945 31.5982 37.741 30.6667 37.4952C28.7637 37.3904 27.4689 37.7017 25.8893 38.2456C25.1902 38.4272 24.4524 38.4272 23.8567 38.3243C23.6629 38.0654 23.6237 37.7404 23.4947 37.4553C23.5333 37.2226 23.2486 37.1702 23.119 37.0011C22.4846 36.8196 21.8372 36.2756 21.3063 35.7828C21.4746 35.887 21.4229 36.2632 21.6559 36.3268C21.9407 36.7298 22.3675 36.9749 22.7301 37.2226C22.8853 37.2344 23.0149 37.2868 23.1059 37.4166C23.119 38.1683 23.5202 38.7123 23.6368 39.4527C24.0898 40.1396 24.1932 41.0198 24.7758 41.7453C24.944 41.8881 25.0088 42.2774 25.2163 42.4458L25.4749 42.691L25.5011 45.4133C25.5659 45.6335 25.5528 45.8674 25.708 46.0614C25.8762 46.0346 25.9672 45.8288 26.0706 45.6984C26.2389 45.3216 26.3685 45.3216 26.6146 44.9854C27.029 44.7265 27.5468 44.4283 27.9605 44.4925C28.2197 44.5312 28.3362 44.2599 28.5824 44.2337C28.8933 43.9099 29.2809 43.3659 29.7476 43.2368C30.0062 42.9898 30.175 42.9255 30.4853 42.6142C30.3688 41.9399 29.942 41.2911 29.8379 40.5531C29.8766 39.7347 29.3849 38.9069 29.8379 38.1814C29.7731 38.0123 29.9937 38.0778 30.0716 38.0254C30.5632 38.0778 31.0555 38.0897 31.5085 38.2581C32.1565 38.3367 32.6351 38.6992 33.217 38.9069C33.5797 39.2051 33.9293 39.6187 34.3567 39.9437C34.3823 40.1127 34.6284 40.1764 34.6153 40.2943C34.3567 40.5007 34.4078 40.8644 34.0844 41.0073C33.6831 41.643 33.4501 42.3554 33.2426 43.0684C33.2426 43.3273 33.1261 43.5462 33.0999 43.7814C32.8282 44.2343 32.336 44.3254 32.2456 44.4027C31.4823 44.9729 31.3783 45.8412 30.6405 46.3852H20.6832C21.1624 44.5581 22.107 44.7645 22.7283 44.442C22.8192 44.1956 22.8579 43.8195 23.0006 43.5986C23.104 43.3666 22.9358 43.2749 22.7544 43.2112C22.1974 42.6005 21.7057 41.8239 21.0714 41.2537C20.8384 40.8258 20.3723 40.6311 20.0096 40.3585C19.1554 39.9443 18.2749 39.464 17.602 38.6736C17.4854 38.6474 17.4593 38.4939 17.382 38.401C16.3975 37.7803 15.2846 37.5326 14.249 37.0673C13.3168 36.4447 12.6439 35.693 11.8021 34.9544L11.2064 33.723C10.7409 33.4117 10.1321 33.295 9.83429 32.776C9.32895 32.5433 8.7208 32.7374 8.2678 32.4005C8.25471 32.3743 8.24163 32.3487 8.21608 32.3225C8.35877 32.2452 8.48775 32.1797 8.65599 32.1672C8.79868 31.9208 9.00556 31.7916 9.22551 31.675C9.27786 31.6363 9.26477 31.5577 9.26477 31.5059C9.16071 31.4411 9.08282 31.2726 8.91458 31.3244C8.03413 32.413 8.43604 31.7012 7.30946 32.2969C6.89509 32.2838 6.42901 32.4398 6.06698 32.2321C5.86011 32.2321 5.88565 32.0381 5.7953 31.9083C5.91183 31.6232 5.74359 31.2988 5.7953 30.9613C5.86011 30.9613 5.91183 30.9744 5.96354 30.9482C5.91183 30.9096 5.84702 30.922 5.7953 30.8971C5.75667 30.7411 5.84702 30.637 5.96354 30.5334C6.13178 30.6501 5.91183 31.1036 6.28756 30.9744C6.41717 31.1298 6.57232 30.9613 6.71439 30.9613C6.9088 30.9613 7.18047 31 7.20664 30.7549C7.38797 30.7018 7.64656 30.5471 7.68519 30.3269C7.74999 30.1061 7.8148 29.8859 7.78925 29.6133C7.69828 29.4318 7.54312 29.3793 7.45215 29.1598C7.30946 29.1847 7.16739 29.1336 7.03778 29.0936C6.429 29.0288 5.9112 29.2115 5.32922 29.1972L5.10926 29.1074C5.25133 28.6651 5.18715 28.6127 5.12235 28.287C5.35539 28.1579 5.53671 27.9371 5.69187 27.7294C5.69187 27.7163 5.75667 27.1592 5.74359 27.0294C6.01588 26.861 6.09315 26.8348 6.33928 26.7188C7.02532 26.589 7.47894 26.9521 8.09956 26.9652C8.47591 27.0563 8.81177 27.211 9.22614 27.211C9.30403 27.2889 9.44672 27.2372 9.52398 27.3407H9.7832C9.73085 27.1717 9.70531 26.9384 9.71839 26.7188C9.60125 26.5628 9.34266 26.5104 9.21305 26.4586C8.66908 26.5628 8.0871 26.5628 7.50449 26.5628C7.60793 26.5104 7.58176 26.2777 7.76308 26.2646C7.91886 26.1736 7.99612 25.9527 8.19053 25.9658C8.44974 25.7331 8.87657 25.8492 9.21305 25.7849C9.92526 25.9016 10.6761 25.8367 11.4394 25.876C11.6725 25.7331 11.8924 25.5903 12.1772 25.5641C12.3597 25.3701 12.5922 25.6165 12.8258 25.5647ZM5.13606 27.0556C5.13606 27.3145 5.09742 27.5353 4.88993 27.7032C4.72107 27.7556 4.48802 27.9109 4.31978 27.7294H4.33287C4.31978 27.5996 4.26807 27.4574 4.26807 27.2765C4.3715 27.0556 4.6949 27.0681 4.83759 26.9652C4.96782 26.9384 5.04508 26.9908 5.13606 27.0556ZM6.53369 29.5989C6.36482 29.6513 6.39162 29.4692 6.28756 29.4049C6.19659 29.5609 6.31373 29.8067 6.18412 29.9763C6.01526 29.8853 5.93737 29.6644 5.84702 29.5085C5.6657 29.5865 5.74296 29.8067 5.65261 29.9763C5.56164 29.937 5.4582 29.8591 5.44574 29.7555C5.3934 29.6389 5.28996 29.5216 5.28996 29.3662L6.58478 29.3138C6.59849 29.4049 6.5854 29.5216 6.53369 29.5989ZM7.33687 30.1317C7.16801 30.4816 6.87079 30.8965 6.4047 30.8965V30.5459C6.63712 30.2477 6.96114 30.1317 7.33687 30.1317Z" fill="#FFEC00"/>
<path fill-rule="evenodd" clip-rule="evenodd" d="M68.8533 12.608H67.2407V3.90198H74.5305V12.608H72.9185V5.34424H68.8533V12.608Z" fill="#0065B1"/>
<path fill-rule="evenodd" clip-rule="evenodd" d="M77.0371 4.31438C77.9805 3.9195 79.5414 3.66187 80.6904 3.66187C83.4688 3.66187 84.7387 4.67494 84.7387 8.22945C84.7387 11.784 83.4009 12.8488 80.8792 12.8488C79.7813 12.8488 79.0952 12.54 78.6497 12.2306V15.9055H77.0371V4.31438ZM78.6497 10.3754C78.6497 11.0454 79.5756 11.4228 80.6904 11.4228C82.4569 11.4228 83.0401 10.7703 83.0401 8.26313C83.0401 5.58447 82.4569 5.1035 80.6904 5.1035C79.9701 5.1035 79.198 5.20643 78.6497 5.41292V10.3754Z" fill="#0065B1"/>
<path fill-rule="evenodd" clip-rule="evenodd" d="M92.717 6.52887C91.5163 8.64111 90.0065 10.7877 88.6008 12.608H86.9707V3.90198H88.6001V10.2212C90.0065 8.40094 91.4471 6.10031 92.7164 3.90198H94.3284V12.608H92.7164V6.52887H92.717Z" fill="#0065B1"/>
<path fill-rule="evenodd" clip-rule="evenodd" d="M104.28 3.90198H106.664V12.608H105.069V5.58503C104.125 7.59435 103.096 10.084 102.393 12.0415H101.055C100.317 10.0497 99.3229 7.54257 98.4481 5.58503V12.608H96.8354V3.90198H99.3054C100.215 5.8252 101.038 7.73096 101.827 9.72343C102.599 7.69665 103.388 5.80774 104.28 3.90198Z" fill="#0065B1"/>
<path fill-rule="evenodd" clip-rule="evenodd" d="M108.897 8.21198C108.897 4.65748 110.218 3.66187 112.945 3.66187C115.689 3.66187 116.993 4.65748 116.993 8.21198C116.993 11.784 115.707 12.8482 112.945 12.8482C110.201 12.8482 108.897 11.784 108.897 8.21198ZM110.612 8.24629C110.612 10.8563 111.178 11.4571 112.945 11.4571C114.712 11.4571 115.278 10.8563 115.278 8.24629C115.278 5.51585 114.712 5.05235 112.945 5.05235C111.178 5.05235 110.612 5.51585 110.612 8.24629Z" fill="#0065B1"/>
<path fill-rule="evenodd" clip-rule="evenodd" d="M119.243 4.31438C120.186 3.9195 121.747 3.66187 122.896 3.66187C125.674 3.66187 126.944 4.67494 126.944 8.22945C126.944 11.784 125.606 12.8488 123.085 12.8488C121.987 12.8488 121.301 12.54 120.855 12.2306V15.9055H119.243V4.31438ZM120.855 10.3754C120.855 11.0454 121.781 11.4228 122.896 11.4228C124.662 11.4228 125.246 10.7703 125.246 8.26313C125.246 5.58447 124.662 5.1035 122.896 5.1035C122.176 5.1035 121.404 5.20643 120.855 5.41292V10.3754Z" fill="#0065B1"/>
<path fill-rule="evenodd" clip-rule="evenodd" d="M135.745 12.3847C135.076 12.6766 133.961 12.8482 133.172 12.8482C130.497 12.8482 128.918 11.7833 128.918 8.21198C128.918 4.65748 130.514 3.66187 133.172 3.66187C133.962 3.66187 135.093 3.83341 135.745 4.07421L135.317 5.51647C134.733 5.25884 133.962 5.1216 133.241 5.1216C131.474 5.1216 130.634 5.55078 130.634 8.24692C130.634 10.8058 131.474 11.3891 133.241 11.3891C133.996 11.3891 134.733 11.2001 135.317 10.9599L135.745 12.3847Z" fill="#0065B1"/>
<path fill-rule="evenodd" clip-rule="evenodd" d="M142.849 12.608C141.151 9.3454 139.967 8.67542 138.835 8.45209V12.608H137.223V3.90198H138.835V8.09153C139.556 7.40471 140.962 5.80774 142.557 3.90198H144.53C142.695 6.15146 141.46 7.50826 140.945 7.86883C141.871 8.22939 142.695 8.69289 144.77 12.608H142.849Z" fill="#0065B1"/>
<path fill-rule="evenodd" clip-rule="evenodd" d="M151.787 6.52887C150.586 8.64111 149.077 10.7877 147.671 12.608H146.042V3.90198H147.671V10.2212C149.077 8.40094 150.518 6.10031 151.787 3.90198H153.399V12.608H151.787V6.52887Z" fill="#0065B1"/>
<path fill-rule="evenodd" clip-rule="evenodd" d="M161.635 6.52898C160.434 8.64122 158.924 10.7878 157.519 12.6081H155.889V3.90209H157.519V10.2213C158.925 8.40105 160.366 6.10042 161.635 3.90209H163.247V12.6081H161.635V6.52898ZM158.376 0.639526C158.376 1.53221 158.788 1.73869 159.628 1.73869C160.332 1.73869 160.915 1.54967 160.881 0.639526H162.012C162.012 2.20219 161.189 2.90585 159.594 2.90585C158.033 2.90585 157.175 2.20219 157.175 0.639526H158.376Z" fill="#0065B1"/>
<path fill-rule="evenodd" clip-rule="evenodd" d="M172.066 12.608C170.368 9.3454 169.185 8.67542 168.052 8.45209V12.608H166.44V3.90198H168.052V8.09153C168.773 7.40471 170.18 5.80774 171.775 3.90198H173.748C171.913 6.15146 170.677 7.50826 170.162 7.86883C171.088 8.22939 171.913 8.69289 173.988 12.608H172.066Z" fill="#EE3F58"/>
<path fill-rule="evenodd" clip-rule="evenodd" d="M175.276 4.31438C176.22 3.9195 177.781 3.66187 178.93 3.66187C181.708 3.66187 182.977 4.67494 182.977 8.22945C182.977 11.784 181.64 12.8488 179.118 12.8488C178.021 12.8488 177.334 12.54 176.888 12.2306V15.9055H175.276V4.31438ZM176.888 10.3754C176.888 11.0454 177.814 11.4228 178.929 11.4228C180.696 11.4228 181.279 10.7703 181.279 8.26313C181.279 5.58447 180.696 5.1035 178.929 5.1035C178.209 5.1035 177.436 5.20643 176.888 5.41292V10.3754Z" fill="#EE3F58"/>
<path fill-rule="evenodd" clip-rule="evenodd" d="M192.207 12.1614C191.179 12.5906 189.651 12.8482 188.485 12.8482C185.861 12.8482 184.883 12.1957 184.883 9.92874C184.883 7.45593 186.324 7.06105 188.314 7.06105C189.137 7.06105 189.806 7.14714 190.63 7.31869C190.63 5.49839 190.167 5.10352 188.262 5.10352C187.37 5.10352 186.392 5.22392 185.69 5.49839L185.346 4.09044C186.118 3.88396 187.302 3.66125 188.52 3.66125C191.076 3.66125 192.207 4.4167 192.207 7.04421V12.1614ZM190.63 8.52141C190.081 8.38417 189.344 8.33239 188.606 8.33239C187.131 8.33239 186.633 8.4871 186.633 9.84328C186.633 11.3024 187.027 11.5257 188.588 11.5257C189.309 11.5257 190.046 11.3885 190.63 11.1826V8.52141Z" fill="#EE3F58"/>
<path fill-rule="evenodd" clip-rule="evenodd" d="M200.409 6.52898C199.208 8.64122 197.699 10.7878 196.293 12.6081H194.664V3.90209H196.293V10.2213C197.7 8.40105 199.14 6.10042 200.409 3.90209H202.022V12.6081H200.409V6.52898ZM197.15 0.639526C197.15 1.53221 197.562 1.73869 198.402 1.73869C199.106 1.73869 199.688 1.54967 199.655 0.639526H200.786C200.786 2.20219 199.963 2.90585 198.368 2.90585C196.807 2.90585 195.95 2.20219 195.95 0.639526H197.15Z" fill="#EE3F58"/>
<path fill-rule="evenodd" clip-rule="evenodd" d="M147.487 23.8716H127.627C127.435 23.8716 127.277 24.0282 127.267 24.2215C126.768 33.3848 125.078 43.2548 122.631 51.3189C122.597 51.4274 122.617 51.5503 122.684 51.6458C122.751 51.7375 122.861 51.7949 122.975 51.7949H129.771C129.928 51.7949 130.069 51.6913 130.117 51.5372C132.02 45.3228 133.548 37.2506 134.127 30.3767H140.645V51.4256C140.645 51.627 140.807 51.7936 141.004 51.7936H147.487C147.689 51.7936 147.847 51.627 147.847 51.4256V24.244C147.849 24.0394 147.688 23.8716 147.487 23.8716Z" fill="#EE3F58" stroke="black" stroke-width="0.731251"/>
<path fill-rule="evenodd" clip-rule="evenodd" d="M231.468 23.8716H224.989C224.79 23.8716 224.628 24.0375 224.628 24.244V45.2747C223.203 45.6821 221.784 45.8786 220.182 45.8786C215.884 45.8786 214.896 44.5386 214.896 38.7172V24.244C214.896 24.0394 214.736 23.8716 214.533 23.8716H208.053C207.853 23.8716 207.693 24.0375 207.693 24.244V39.4115C207.693 48.8991 210.826 52.5971 218.873 52.5971C223.453 52.5971 228.563 51.4031 231.597 50.2216C231.737 50.1648 231.832 50.0307 231.832 49.8791V24.244C231.83 24.0394 231.668 23.8716 231.468 23.8716Z" fill="#EE3F58" stroke="black" stroke-width="0.731251"/>
<path fill-rule="evenodd" clip-rule="evenodd" d="M93.5656 23.9017H86.9825C86.8167 23.9017 86.6709 24.0158 86.6329 24.1805C85.5898 28.3713 83.4981 35.3562 80.6878 42.6773L74.0717 24.1156C74.02 23.9709 73.8872 23.8711 73.7333 23.8711H67.0667C66.9514 23.8711 66.8386 23.931 66.7738 24.0308C66.7047 24.1294 66.6872 24.2566 66.7271 24.3695L76.632 52.1537C75.5977 54.2821 74.668 56.0463 73.7695 57.7562C73.1077 59.0144 72.4641 60.2327 71.8142 61.5365C71.7575 61.6507 71.7631 61.7854 71.8272 61.8952C71.8945 62.0044 72.0092 62.0711 72.1369 62.0711H79.3507C79.4859 62.0711 79.6074 61.9938 79.6716 61.8684C80.896 59.4667 82.4051 56.1305 83.8121 52.7151C88.0224 42.5987 91.4215 33.0624 93.9127 24.3726C93.947 24.2597 93.9252 24.1387 93.8572 24.0439C93.7874 23.9541 93.6815 23.9017 93.5656 23.9017Z" fill="#EE3F58" stroke="black" stroke-width="0.731251"/>
<path fill-rule="evenodd" clip-rule="evenodd" d="M117.109 44.6092C117.073 44.5169 117.008 44.4389 116.92 44.4002C116.831 44.3572 116.732 44.3547 116.641 44.389C115.057 44.9841 112.094 45.4713 110.034 45.4713C105.514 45.4713 103.364 44.2262 103.364 37.1452C103.364 31.4822 104.023 28.8173 110.034 28.8173C111.738 28.8173 113.321 29.0712 115.328 29.6638C115.494 29.7106 115.667 29.6351 115.751 29.4829C116.502 28.0412 117.408 26.2802 118.431 24.1206C118.476 24.0257 118.476 23.9116 118.436 23.813C118.398 23.7188 118.314 23.6408 118.216 23.609C115.556 22.7444 112.397 22.2454 109.558 22.2454C100.095 22.2454 95.875 26.8073 95.875 37.0354C95.875 47.4157 100.095 52.0413 109.558 52.0413C111.929 52.0413 116.605 51.5348 118.858 50.6134C119.038 50.5398 119.131 50.3339 119.064 50.1424L117.109 44.6092Z" fill="#EE3F58" stroke="black" stroke-width="0.731251"/>
<path fill-rule="evenodd" clip-rule="evenodd" d="M179.458 23.9017H172.872C172.704 23.9017 172.562 24.0158 172.52 24.1805C171.477 28.375 169.388 35.3605 166.579 42.6773L159.964 24.1156C159.911 23.9709 159.775 23.8711 159.625 23.8711H152.957C152.842 23.8711 152.73 23.931 152.66 24.0308C152.594 24.1294 152.577 24.2566 152.615 24.3695L162.521 52.1537C161.488 54.2778 160.561 56.0388 159.665 57.7462C159 59.0069 158.357 60.2271 157.704 61.5353C157.646 61.6494 157.652 61.7842 157.717 61.8952C157.783 62.0031 157.902 62.0699 158.026 62.0699H165.237C165.371 62.0699 165.497 61.9925 165.56 61.8684C166.782 59.4692 168.291 56.133 169.7 52.7139C173.904 42.6155 177.304 33.0792 179.801 24.3714C179.834 24.2585 179.814 24.1375 179.746 24.0426C179.676 23.9541 179.567 23.9017 179.458 23.9017Z" fill="#EE3F58" stroke="black" stroke-width="0.731251"/>
<path fill-rule="evenodd" clip-rule="evenodd" d="M203.741 23.8716H184.557C184.357 23.8716 184.195 24.0375 184.195 24.244V51.4274C184.195 51.6295 184.357 51.7955 184.557 51.7955H191.035C191.233 51.7955 191.396 51.6295 191.396 51.4274V30.378H201.416C201.56 30.378 201.693 30.29 201.746 30.1565C202.51 28.32 203.291 26.3743 204.076 24.3812C204.121 24.2683 204.106 24.1373 204.042 24.0394C203.973 23.9377 203.859 23.8716 203.741 23.8716Z" fill="#EE3F58" stroke="black" stroke-width="0.731251"/>
</svg>
