<svg width="61" height="66" viewBox="0 0 61 66" fill="none" xmlns="http://www.w3.org/2000/svg">
<g clip-path="url(#clip0_33_13)">
<g clip-path="url(#clip1_33_13)">
<path d="M42.362 4.65902C42.362 6.48897 42.1425 7.95292 41.9229 7.95292C41.7033 7.95292 38.9217 6.63537 35.7742 4.95181L29.9184 1.95069L19.1583 8.17252C13.1561 11.5396 6.42184 15.4191 4.07951 16.6635C0.126825 18.9326 -0.165967 19.2986 0.053627 21.4213C0.273221 23.9101 0.492814 23.9832 4.3723 22.2997L7.00743 21.2017L6.64144 42.6487L6.27545 64.0957L28.674 64.6813C40.9713 64.9741 51.3654 64.9741 51.8046 64.6813C52.3902 64.3885 52.6097 57.2151 52.6097 42.6487V21.1285L56.1233 23.3245L59.5636 25.4472L59.7831 23.1781C60.0027 21.2017 59.5635 20.3966 56.3428 17.615L52.6097 14.3943V7.87972V1.36511H47.4859H42.362V4.65902ZM32.1875 11.7592C33.7247 17.6882 35.4814 21.1285 41.3373 29.6927C46.7539 37.7445 48.2179 42.4291 46.8271 47.919C45.656 52.6036 42.1424 57.4347 38.1166 59.9966C35.335 61.7534 33.9443 62.1194 30.3576 62.1194C17.2552 62.0462 8.8374 50.4077 12.6437 37.7445C13.5221 34.8165 20.7687 23.9832 24.8677 19.5182C26.1121 18.0542 29.1864 9.78286 29.1864 7.73334C29.1864 4.73221 31.0896 7.29414 32.1875 11.7592Z" fill="white"/>
<path d="M30.7965 25.3006C31.0161 29.3265 31.6017 31.3029 33.944 35.7679C36.6524 40.8918 36.7988 41.697 36.872 47.4796C36.9452 53.555 36.9452 53.7014 38.7019 53.7014C41.1174 53.7014 42.3618 51.0663 42.3618 45.8693C42.3618 41.1846 40.6051 36.7927 36.3596 31.0101C34.8956 28.9605 33.2853 25.813 32.7729 23.8367C31.5285 18.7128 30.4305 19.518 30.7965 25.3006Z" fill="white"/>
<path d="M34.0908 56.044C33.2124 56.9224 33.5784 59.9235 34.53 59.9235C35.0424 59.9235 36.1404 59.4843 36.9455 58.8987C38.3363 57.8007 38.3363 57.8007 36.8723 56.7028C35.1888 55.4584 34.7496 55.312 34.0908 56.044Z" fill="white"/>
</g>
</g>
<defs>
<clipPath id="clip0_33_13">
<rect width="60.0223" height="64.4142" fill="white" transform="translate(0 0.925964)"/>
</clipPath>
<clipPath id="clip1_33_13">
<rect width="60.0223" height="64.4142" fill="white" transform="translate(0 0.925964)"/>
</clipPath>
</defs>
</svg>
