<svg width="52" height="57" viewBox="0 0 52 57" fill="none" xmlns="http://www.w3.org/2000/svg">
<g clip-path="url(#clip0_8_682)">
<path d="M36.3712 4.05294C36.3712 5.6241 36.1827 6.88102 35.9942 6.88102C35.8056 6.88102 33.4175 5.7498 30.7151 4.30432L25.6874 1.72762L16.449 7.06956C11.2956 9.96048 5.51367 13.2913 3.50259 14.3597C0.108889 16.308 -0.142496 16.6222 0.0460431 18.4447C0.234582 20.5815 0.423121 20.6444 3.75397 19.1989L6.01644 18.2562L5.70221 36.6702L5.38798 55.0841L24.619 55.5869C35.1772 55.8383 44.1013 55.8383 44.4784 55.5869C44.9812 55.3355 45.1697 49.1766 45.1697 36.6702V18.1933L48.1864 20.0787L51.1401 21.9013L51.3287 19.953C51.5172 18.2562 51.1401 17.5649 48.3749 15.1767L45.1697 12.4115V6.81818V1.22485H40.7705H36.3712V4.05294ZM27.6356 10.149C28.9554 15.2396 30.4637 18.1933 35.4914 25.5464C40.142 32.4595 41.3989 36.4816 40.2049 41.1951C39.1993 45.2173 36.1827 49.3651 32.7262 51.5648C30.338 53.0731 29.1439 53.3873 26.0644 53.3873C14.815 53.3244 7.58763 43.3319 10.8556 32.4595C11.6098 29.9456 17.8316 20.6444 21.351 16.8107C22.4194 15.5538 25.0589 8.45217 25.0589 6.69249C25.0589 4.11578 26.6929 6.31541 27.6356 10.149Z" fill="#1B4965"/>
<path d="M26.4412 21.7753C26.6298 25.2318 27.1325 26.9287 29.1436 30.7623C31.4689 35.1616 31.5946 35.8529 31.6575 40.8177C31.7203 46.034 31.7203 46.1597 33.2286 46.1597C35.3026 46.1597 36.3709 43.8972 36.3709 39.4351C36.3709 35.413 34.8626 31.6422 31.2175 26.6773C29.9606 24.9176 28.578 22.2152 28.1381 20.5184C27.0697 16.1191 26.127 16.8104 26.4412 21.7753Z" fill="#1B4965"/>
<path d="M29.2698 48.1709C28.5156 48.925 28.8298 51.5017 29.6468 51.5017C30.0868 51.5017 31.0295 51.1247 31.7208 50.6219C32.9148 49.6792 32.9148 49.6792 31.6579 48.7365C30.2125 47.6681 29.8354 47.5424 29.2698 48.1709Z" fill="#1B4965"/>
</g>
<defs>
<clipPath id="clip0_8_682">
<rect width="51.534" height="55.3048" fill="white" transform="translate(0 0.847656)"/>
</clipPath>
</defs>
</svg>
