<svg width="22" height="23" viewBox="0 0 22 23" fill="none" xmlns="http://www.w3.org/2000/svg">
<g clip-path="url(#clip0_8_704)">
<path fill-rule="evenodd" clip-rule="evenodd" d="M21.538 19.625C21.3959 19.7667 21.2245 19.9479 21.0428 20.1395C20.5893 20.6208 20.0228 21.2191 19.6677 21.4617C17.7995 22.7383 15.3001 22.1275 13.5322 21.3908C11.2 20.4191 8.66091 18.628 6.38106 16.3478C4.09908 14.0675 2.30813 11.5276 1.3364 9.19678C0.600656 7.42848 -0.0114756 4.92862 1.26533 3.06C1.5078 2.70466 2.10747 2.13902 2.58813 1.68465C2.78043 1.50348 2.96018 1.33229 3.10231 1.19062C3.35465 0.939536 3.69614 0.798584 4.05212 0.798584C4.40809 0.798584 4.74958 0.939536 5.00192 1.19062L8.43935 4.62705C8.6903 4.87937 8.83116 5.22077 8.83116 5.57664C8.83116 5.93251 8.6903 6.27391 8.43935 6.52623L7.50295 7.46075C7.19022 7.77119 6.9861 8.17431 6.92095 8.61012C6.8558 9.04592 6.93312 9.49111 7.14139 9.87943C8.42935 12.3103 10.4177 14.2984 12.8488 15.5859C13.2371 15.7941 13.6822 15.8713 14.1179 15.8061C14.5535 15.7408 14.9565 15.5366 15.2667 15.2238L16.2008 14.2892C16.4531 14.0381 16.7946 13.8972 17.1506 13.8972C17.5066 13.8972 17.8481 14.0381 18.1004 14.2892L21.538 17.7262C21.789 17.9785 21.9299 18.3198 21.9299 18.6756C21.9299 19.0314 21.789 19.3728 21.538 19.625Z" fill="#1B4965"/>
</g>
<defs>
<clipPath id="clip0_8_704">
<rect width="21.4035" height="21.4035" fill="white" transform="translate(0.525879 0.79834)"/>
</clipPath>
</defs>
</svg>
