<svg width="22" height="22" viewBox="0 0 22 22" fill="none" xmlns="http://www.w3.org/2000/svg">
<path fill-rule="evenodd" clip-rule="evenodd" d="M21.0122 19.2652C20.87 19.4069 20.6986 19.5881 20.5169 19.7797C20.0634 20.261 19.4969 20.8593 19.1418 21.1019C17.2736 22.3785 14.7743 21.7677 13.0063 21.0311C10.6741 20.0593 8.13503 18.2682 5.85518 15.9881C3.5732 13.7078 1.78225 11.1679 0.810522 8.83701C0.074777 7.06871 -0.537354 4.56885 0.739456 2.70022C0.981917 2.34489 1.58159 1.77925 2.06225 1.32488C2.25455 1.14371 2.4343 0.97252 2.57644 0.830847C2.82877 0.579764 3.17026 0.438812 3.52624 0.438812C3.88221 0.438812 4.2237 0.579764 4.47604 0.830847L7.91347 4.26728C8.16442 4.5196 8.30528 4.861 8.30528 5.21687C8.30528 5.57274 8.16442 5.91414 7.91347 6.16646L6.97707 7.10098C6.66434 7.41142 6.46022 7.81454 6.39507 8.25035C6.32992 8.68615 6.40724 9.13134 6.61551 9.51966C7.90347 11.9506 9.89185 13.9386 12.323 15.2262C12.7112 15.4344 13.1563 15.5116 13.592 15.4463C14.0277 15.3811 14.4306 15.1768 14.7408 14.864L15.6749 13.9294C15.9272 13.6784 16.2687 13.5374 16.6247 13.5374C16.9807 13.5374 17.3222 13.6784 17.5745 13.9294L21.0122 17.3665C21.2631 17.6187 21.404 17.96 21.404 18.3158C21.404 18.6717 21.2631 19.013 21.0122 19.2652Z" fill="white"/>
</svg>
