<svg width="232" height="63" viewBox="0 0 232 63" fill="none" xmlns="http://www.w3.org/2000/svg">
<g clip-path="url(#clip0_8_710)">
<path fill-rule="evenodd" clip-rule="evenodd" d="M1.92627 45.4101C1.92627 47.9336 5.90421 52.6227 8.877 52.6227H17.6115C21.535 52.6227 24.4972 56.0776 24.4972 58.9903C25.0271 58.9903 25.0493 58.9903 25.6107 58.9903C25.6107 56.046 27.4917 52.6121 32.5076 52.6121H41.1121C44.236 52.6121 48.1279 47.9329 48.1279 45.4095C48.1279 31.0296 48.1279 16.7085 48.1279 2.38062L1.92627 2.37134V45.4101Z" fill="#CEDCE6" stroke="#BAC9D4" stroke-width="0.618943" stroke-miterlimit="22.9256"/>
<path fill-rule="evenodd" clip-rule="evenodd" d="M42.7297 52.2451C44.943 51.433 48.1343 47.7454 48.1343 45.2195V43.4784L31.702 26.0205L48.1343 8.46232V2.3645H40.5164L25.01 18.8655L9.50486 2.3645H1.92529V8.46294L18.1905 26.0211L1.92529 43.4784V45.3612C1.92529 47.8611 5.20693 51.2789 7.29152 52.2451L25.01 33.2695L42.7297 52.2451Z" fill="#A8B9C6" stroke="#BAC9D4" stroke-width="0.618943" stroke-miterlimit="22.9256"/>
<path fill-rule="evenodd" clip-rule="evenodd" d="M14.1461 25.3076C14.442 25.5644 14.7118 25.9247 14.8789 26.2589C14.8146 26.2973 14.9049 26.3493 14.9173 26.4136C15.7145 26.5424 16.3576 27.0561 16.9363 27.6348C17.7335 27.6608 18.5821 27.5314 19.1608 28.0594C19.932 28.4592 20.6394 29.0268 21.5264 29.1425C22.8255 29.2589 24.2138 29.2199 25.487 29.1165C26.0273 29.0905 26.4773 29.2329 26.991 29.2589C27.2225 29.2973 27.4286 29.4266 27.6471 29.4904C28.6628 29.8382 29.91 29.8382 31.042 29.7355C32.1988 29.8382 33.3432 29.98 34.4239 30.2375C34.7061 30.4819 35.054 30.5067 35.3492 30.7128C35.5293 30.8415 35.7225 30.9957 35.8122 31.2148C36.0697 31.4202 36.3012 31.6771 36.597 31.8065C36.8539 31.9098 36.8155 32.2434 37.086 32.3462C37.5613 32.8475 38.0763 33.3365 38.7441 33.4145C39.066 33.5562 39.4386 33.5562 39.8118 33.5822C40.2104 33.5562 40.6604 33.672 40.9556 33.3631C41.1233 33.2857 41.2385 33.131 41.3418 33.0023C41.6247 32.6557 41.4706 32.0769 41.4959 31.6146C41.0843 30.7908 40.172 30.1749 39.3488 29.7497C38.8729 29.6464 38.5906 29.3369 38.0503 29.3369C36.9312 29.2211 35.7738 29.0404 34.604 29.1822C33.8452 29.2081 33.113 29.3889 32.3152 29.3369L28.8181 29.3115C28.3552 29.1952 27.8285 29.1698 27.3785 28.9494C26.6067 28.614 25.9122 28.2921 25.0636 28.0606C24.678 27.9449 24.3054 27.7648 24.0733 27.3916C23.9316 27.0573 23.957 26.5944 24.2404 26.3245C24.6137 26.1438 24.9095 25.7588 25.3595 25.7588C25.8095 25.5787 26.4525 25.6684 26.9799 25.6684C27.7003 25.8362 28.3942 26.0546 29.0502 26.4149C29.7193 26.5176 30.3748 26.9038 31.0822 26.6463C32.0979 26.6463 33.0239 26.3889 34.0519 26.4532C35.2607 26.2217 36.4181 26.5176 37.6269 26.5306C40.4815 27.1217 44.1586 28.2797 44.7244 31.7167C45.1489 34.674 41.8952 37.3231 39.0022 36.3588C39.1823 37.1696 39.5302 37.9 39.8254 38.699C40.0439 38.8408 40.1343 39.1224 40.263 39.3545C40.5589 39.7791 40.9061 40.229 41.3814 40.4079C41.9218 40.7428 42.6546 40.5367 43.143 40.9879C43.5422 42.0407 43.8504 43.148 44.4415 44.1643C44.5059 44.6904 43.0786 46.5689 42.8211 47.3395H36.7518C36.1984 46.58 37.2531 44.704 37.125 44.9361C37.5619 44.3574 38.1667 43.9192 38.8221 43.7397C38.603 43.5583 38.4749 43.1597 38.1407 43.1987C37.2791 42.5309 36.212 42.274 35.4278 41.4515C35.3375 41.5672 35.1834 41.6823 35.1834 41.7721C34.4369 42.6596 34.7718 44.0752 33.7944 44.8457C32.5473 45.2963 32.3028 46.5806 31.557 47.2503H20.3566C20.2798 46.5571 20.2148 45.5656 21.038 44.7164C21.2695 44.4211 21.6427 44.358 21.9126 44.1123C22.0797 43.9569 22.2982 43.9452 22.5043 43.8932C22.5303 43.8288 22.6077 43.7397 22.5173 43.6747C22.016 43.2637 21.7071 42.646 21.2571 42.1583C20.9099 41.9776 20.7688 41.5406 20.4086 41.3988C20.0483 41.9256 19.7141 42.4535 19.6497 43.096L19.2258 43.6097C18.5827 43.6995 17.9526 44.1494 17.3739 44.5109C16.1651 45.2053 16.024 46.4637 15.6768 47.3382C15.5226 47.454 15.3425 47.3778 15.124 47.3778H8.6171C8.64247 46.5553 8.99032 45.6924 9.18281 45.4746C9.22118 45.076 9.63278 44.8959 9.89026 44.639C10.5333 44.3562 11.1121 43.9557 11.8319 43.8659C12.2435 42.8249 13.4393 42.2208 13.8892 41.1921C14.1337 40.1238 14.3138 39.0704 14.7378 38.0807C14.1721 37.8356 13.7091 37.3596 13.1948 37.0013C12.6681 36.3829 11.7551 35.9336 11.4847 35.1488L11.1758 34.5317C10.7642 34.2618 10.2499 34.1337 9.92864 33.7091C9.28555 33.7351 8.74522 33.4139 8.16713 33.3099C8.03839 33.3749 7.92264 33.2969 7.78091 33.3619C7.34331 33.4009 6.81659 33.4399 6.43099 33.2461C6.22488 33.3229 6.13452 33.0914 5.98102 33.014C5.40231 32.4607 5.65917 31.7545 5.5948 30.995C5.64617 30.7642 5.78729 30.5451 5.99402 30.4039C6.44399 30.1341 7.08707 30.5061 7.47267 30.1731C6.98371 30.0443 6.55973 30.3272 6.04539 30.2634C5.62079 30.2634 5.24819 30.0827 4.97771 29.7355C4.65648 29.3357 5.18382 28.8974 4.83598 28.523C4.54012 28.4846 4.46275 28.1621 4.32164 27.9183C4.30864 27.4677 4.386 27.0437 4.7976 26.7738C5.13183 26.6841 5.44068 26.5424 5.80029 26.5677C6.08376 26.3876 6.35362 26.1951 6.70085 26.1561C7.90964 26.2205 8.55273 24.8062 9.87665 25.1665C10.5067 25.2432 11.2012 25.2692 11.8566 25.2308C12.0757 25.0891 12.3072 24.909 12.5771 24.896C12.7442 24.7932 12.9887 24.8446 13.1942 24.8576C13.516 24.9733 13.9276 24.9603 14.1461 25.3076ZM29.3319 38.504C29.1648 39.1205 29.2811 39.8168 29.4482 40.4061C29.3579 41.0745 29.7181 41.6805 29.8982 42.2722C29.4099 42.7859 28.8949 43.3646 28.2004 43.7242C27.7765 43.7762 27.2751 43.9056 26.8759 44.0591C26.8115 43.2365 27.082 42.3223 26.3486 41.8853C25.9753 41.2949 25.5897 40.6889 25.3583 40.0211C25.2555 39.8026 25.1392 39.5835 25.0754 39.3526C26.6834 39.2746 27.995 38.6458 29.3319 38.504Z" fill="#BAC9D4"/>
<path fill-rule="evenodd" clip-rule="evenodd" d="M15.2435 42.9738C15.2435 43.0116 15.2435 43.0376 15.2051 43.0753C14.9866 43.0369 14.6654 43.1651 14.5107 42.9738V42.6885C14.562 42.7145 14.562 42.639 14.575 42.5987L15.2435 42.9738ZM14.999 41.9699C15.3592 42.3041 15.8092 42.4056 16.2332 42.6253C16.3495 42.6253 16.4647 42.639 16.5804 42.6891C16.568 42.7411 16.4906 42.7671 16.4393 42.7807C15.8599 42.8067 15.2949 42.7411 14.8833 42.3561C14.8703 42.2527 14.7929 41.9835 14.9476 41.9179C14.9866 41.9055 14.999 41.9179 14.999 41.9699ZM31.9469 41.7242L32.4352 41.7638C32.101 41.9829 31.638 41.9315 31.2134 41.9693V41.7C31.2914 41.7372 31.3038 41.6344 31.3552 41.6084C31.5613 41.6487 31.8311 41.5075 31.9469 41.7242ZM23.6017 41.2494L22.9072 41.9321C22.8175 41.9185 22.6887 41.9705 22.6504 41.8548V41.6617C22.7661 41.6233 22.8305 41.5589 22.9592 41.5459V41.4815C23.2167 41.4679 23.3578 41.1981 23.6023 41.1733L23.6017 41.2494ZM15.3462 41.0817C15.6037 41.1727 15.9126 41.1597 16.1694 41.2494C16.7098 41.5335 17.4302 41.8424 17.9829 42.2527C17.2625 42.0213 16.3501 41.635 15.527 41.7502C15.3852 41.7124 15.2435 41.6084 15.1537 41.4809C15.1407 41.3516 15.1154 41.1331 15.1537 40.966C15.2435 40.9666 15.2949 41.0316 15.3462 41.0817ZM33.1427 41.2105C32.538 41.2488 31.8571 41.1207 31.2134 41.1337C31.0847 41.0817 30.9949 40.992 30.8922 40.8898L30.9052 40.7221C31.7668 40.6447 32.3969 41.0817 33.1427 41.2105ZM38.4278 40.3476C38.3251 40.529 38.2093 40.581 38.0292 40.7091C37.643 40.8378 37.4629 41.1727 36.9875 41.044C36.9362 41.0563 36.9102 41.044 36.8712 41.0056C37.1287 40.7989 37.4889 40.581 37.7841 40.529C38.0546 40.607 38.119 40.3371 38.4278 40.3476ZM23.7818 40.2201C23.8078 40.2981 23.7174 40.3619 23.679 40.4133C23.4346 40.5414 23.1771 40.8119 22.9462 40.979C22.6887 40.979 22.6114 41.1331 22.3799 41.1721H22.084C21.9943 41.0811 21.9943 40.953 21.8655 40.9016C22.0203 40.7599 22.2511 40.9134 22.4449 40.8372C22.9332 40.7865 23.3956 40.542 23.7818 40.2201ZM16.568 40.516C16.8899 40.503 17.057 40.9028 17.4036 40.9028C17.6611 41.1981 17.9569 41.3262 18.2658 41.5193V41.5837C17.3522 40.992 16.3105 40.8762 15.3592 40.4392C15.3852 40.3365 15.3852 40.2319 15.4366 40.1564C15.8866 40.1174 16.2845 40.183 16.568 40.516ZM22.8429 39.8605C22.5086 40.1434 21.9039 39.8735 21.6217 40.183C21.5053 40.157 21.5183 40.2851 21.441 40.3111C21.2225 40.3111 21.0164 40.3111 20.8622 40.183C20.7589 40.2065 20.6827 40.118 20.6438 40.0413C20.8752 40.0413 21.0937 39.9893 21.3252 39.8995C21.8266 39.8605 22.3409 39.8339 22.8422 39.7708L22.8429 39.8605ZM38.2347 39.4359C38.2347 39.4496 38.2477 39.4626 38.2607 39.4756C38.0162 39.5653 37.7204 39.6173 37.4889 39.7714C37.18 39.8482 36.9616 40.0914 36.6917 40.2208C36.4218 40.3483 36.126 40.196 35.8431 40.17V40.1056C36.2931 39.9379 36.7944 39.759 37.2444 39.5399C37.5916 39.5251 37.9011 39.4626 38.2347 39.4359ZM31.9085 39.5511C32.2817 39.6037 32.6933 39.6668 33.0406 39.7962C33.1563 39.9893 33.5289 39.9125 33.735 40.118C32.7187 39.6928 31.664 40.2727 30.7133 39.7714C30.662 39.681 30.662 39.4756 30.8291 39.4099C31.2011 39.4359 31.5613 39.4496 31.9085 39.5511ZM17.018 39.3084C17.481 39.6043 17.9179 40.053 18.3555 40.3371C17.494 40.0283 16.5043 39.5653 15.5907 39.4099C15.5777 39.1667 15.7708 39.1531 15.7968 38.9222C15.8612 38.8195 16.0023 38.9222 16.0797 38.9488C16.4133 39.0503 16.6961 39.2175 17.018 39.3084ZM31.5099 38.6394C32.0626 38.7675 32.629 39.0906 33.207 39.2428C32.4742 39.2688 31.8571 38.9222 31.0853 39.0256C30.9566 38.9352 30.7641 38.9736 30.6737 38.7805C30.6997 38.6777 30.6477 38.6127 30.7127 38.562C31.0086 38.5366 31.2264 38.6777 31.5099 38.6394ZM17.2495 38.7545C17.5713 38.9086 17.8542 39.09 18.2014 39.2057L18.1754 39.2181C18.7411 39.6674 19.3458 40.144 19.9369 40.5296C19.8602 40.8775 19.6151 41.2494 19.3582 41.5583C19.1911 41.8659 19.1391 42.215 19.0624 42.561C18.9726 42.5994 18.9596 42.7027 18.9212 42.7801C17.9049 43.0369 16.6961 44.0656 15.9893 44.7718C15.8729 45.0683 15.6285 45.314 15.4743 45.5833C15.462 45.9039 15.2819 46.1372 15.2565 46.4448L9.77822 46.4708C9.72684 46.123 9.91995 45.9435 10.1254 45.647C10.524 45.1841 11.0384 45.0318 11.5273 44.7855C11.7978 44.6697 12.1191 44.6957 12.3889 44.6072C13.045 43.6677 13.8032 42.8698 14.575 41.9699C14.6264 41.7644 14.7681 41.609 14.8455 41.4302C15.038 40.516 15.2825 39.5257 15.5913 38.6394C15.514 38.2668 15.9775 38.4846 16.157 38.4586C16.5036 38.5874 16.8892 38.6517 17.2495 38.7545ZM37.8101 38.4326C37.6306 38.6257 37.2834 38.4209 37.0779 38.692C36.6397 38.9352 36.2027 39.1673 35.7918 39.5022C35.4575 39.5919 35.239 39.3846 34.9562 39.2831C35.226 39.1277 35.663 39.1153 35.8431 38.8585C36.4732 38.6264 37.1293 38.4462 37.8101 38.3695V38.4326ZM22.8429 38.2278C22.56 38.5106 21.9553 38.4722 21.6594 38.7415C21.1451 38.8838 20.9656 39.5022 20.4513 39.6928C20.1938 39.7064 19.8596 39.7825 19.6794 39.5393C19.5891 39.5133 19.4356 39.5015 19.4356 39.4099C19.7184 39.4359 20.0013 39.3208 20.2711 39.2175C20.3999 39.0757 20.6054 38.999 20.7855 38.9216V38.8572C21.0943 38.7019 21.3512 38.5731 21.7244 38.5094C22.097 38.4209 22.4573 38.2909 22.8429 38.2278ZM37.2834 37.7128C36.9492 37.8805 36.5116 37.8545 36.1903 38.0996C35.5856 38.2018 35.252 38.7935 34.6603 38.8962C34.6083 38.7805 34.4158 38.8702 34.3255 38.8071C34.2227 38.7545 34.068 38.7025 34.0556 38.5738C34.6987 38.7025 34.9816 38.021 35.5343 37.9319C36.1384 37.8929 36.6917 37.7128 37.2828 37.6354L37.2834 37.7128ZM22.2388 37.3792C22.0457 37.4689 21.8915 37.5339 21.6471 37.5599C20.978 37.9325 20.3095 38.4463 19.6924 38.9352C19.3576 39.0906 18.972 39.0256 18.7275 38.7675C18.6761 38.7545 18.6761 38.7031 18.6761 38.666C18.8179 38.7031 18.9076 38.6134 19.0104 38.5744C19.6281 38.2538 20.1034 37.8298 20.7855 37.5599C21.2355 37.5203 21.7628 37.4052 22.2388 37.3792ZM36.4218 36.9162C35.226 36.8395 34.7884 38.3565 33.5413 38.0347C33.3865 37.9585 33.1557 38.0087 33.0269 37.9065C33.2844 37.7388 33.7344 37.8675 33.9529 37.5209C34.7371 37.1861 35.5213 36.8902 36.4218 36.8779V36.9162ZM20.5924 36.6717C20.4383 36.7615 20.2192 36.7875 20.1294 36.9546C20.078 36.9676 20.0007 36.9416 19.9617 36.9676C19.5371 37.2764 19.3186 37.8663 18.8173 38.138C18.457 38.2909 18.0708 38.138 17.7242 38.034C17.7242 37.9839 17.7496 37.9443 17.7886 37.9443C18.0077 37.8422 18.3933 37.7122 18.6378 37.5333C18.8309 37.4176 19.0747 37.1855 19.2678 37.0697C19.6664 36.8389 20.1034 36.6191 20.6054 36.53C20.7081 36.5684 20.5924 36.6198 20.5924 36.6717ZM17.6611 35.398C17.455 35.8492 17.2885 36.2991 17.1077 36.7609C17.0304 37.0196 16.9276 37.2505 16.7091 37.4423C16.6578 37.4683 16.5804 37.4423 16.5544 37.5203C16.3489 37.6231 16.2969 37.3402 16.0914 37.4182C16.503 37.0196 16.7475 36.582 17.2099 36.1438C17.1839 35.9265 17.39 35.7972 17.429 35.6041C17.5317 35.5781 17.5577 35.4363 17.6091 35.372L17.6611 35.398ZM16.568 34.6664C16.4776 35.0396 16.3619 35.4512 16.2592 35.8232C16.1428 35.8096 16.092 35.9395 15.9763 35.8875C15.6928 36.1704 15.6285 36.569 15.3456 36.8779C15.2812 36.8531 15.2429 36.9032 15.2169 36.9292C14.947 36.9552 14.6252 36.9552 14.5094 36.6724C14.7669 36.634 14.8443 36.4273 15.0751 36.2998C15.5257 35.8232 15.9627 35.2835 16.4257 34.6794C16.5284 34.5382 16.5928 34.3711 16.7085 34.2424C16.6324 34.3705 16.6961 34.589 16.568 34.6664ZM33.4769 35.5521C34.4158 35.6177 35.4062 35.5521 36.1774 36.0423C36.2677 36.158 36.4218 36.1178 36.5246 36.2212C35.5733 36.1178 34.583 36.2731 33.657 36.3499C33.2454 36.1698 32.8728 35.9005 32.4742 35.7192C32.3455 35.6548 31.4709 33.9583 31.5477 34.1C32.3071 34.9368 32.4482 35.2308 33.4769 35.5521ZM15.2689 33.6253C15.1791 34.1384 14.7675 34.5382 14.5614 35.013C14.4073 35.2438 14.3299 35.5026 14.1114 35.7074C14.0087 35.7198 13.9183 35.7718 13.8026 35.7458C13.7512 35.6814 13.6095 35.7198 13.5327 35.6678C13.4684 35.5781 13.391 35.4766 13.3136 35.398C13.6998 35.2438 13.9951 35.013 14.3683 34.7945C14.7793 34.4466 14.96 34.0091 15.2039 33.6247L15.2689 33.6253ZM21.441 33.5473C21.7882 33.8178 21.9683 34.2554 22.3415 34.4603C22.56 34.6404 22.6114 34.9876 22.5476 35.2568C22.4703 35.4766 22.2778 35.6554 22.3031 35.9135C22.2004 35.9012 22.2004 35.7718 22.11 35.7204L22.0457 35.1553H22.0587C22.071 34.5253 21.5053 34.0883 21.3772 33.5479L21.441 33.5473ZM35.6116 33.046C35.7014 33.4706 35.7918 33.9855 35.9719 34.4083C35.7918 34.2418 35.6376 34.0357 35.4315 33.9075C34.8281 33.5083 34.9302 32.8021 34.6603 32.2482L34.6343 32.094C34.9562 32.3775 35.4699 32.5063 35.6116 33.046ZM27.2788 31.9919C27.4719 32.3255 27.665 32.7241 27.8705 33.1227C27.8965 33.3932 27.9609 33.6884 28.0636 33.9329C28.0636 34.615 28.578 35.065 28.7191 35.7198C28.7575 36.0163 28.7061 36.2738 28.6034 36.5046C28.565 36.21 28.4492 35.9012 28.3075 35.6307C28.2691 35.2705 27.8829 35.0396 27.6774 34.7567C27.4459 34.4479 27.4713 34.0363 27.4199 33.6637C27.3432 33.0967 27.3816 32.57 27.2398 31.9925L27.2788 31.9919ZM23.7818 32.0049C23.8202 32.3899 24.0263 32.635 24.2318 33.0076C24.592 33.8438 24.7721 34.7815 24.5276 35.7198C24.4379 36.0423 24.3351 36.3375 24.2961 36.6457C24.2188 36.0918 24.3475 35.437 24.1804 34.9109C24.0257 33.8048 23.6654 32.7885 23.6401 31.6961C23.7818 31.7084 23.7174 31.9152 23.7818 32.0049ZM33.8885 32.0947C34.1584 32.8151 34.4288 33.5739 34.9302 34.191C34.4796 33.9082 34.133 33.6507 33.67 33.3548C33.4255 32.7371 33.0139 32.2228 32.6413 31.6187C32.603 31.5673 32.4996 31.5927 32.4742 31.503C33.0399 31.4906 33.5029 31.7084 33.8885 32.0947ZM31.4715 31.5153C31.677 31.6441 32.2044 31.8378 32.166 32.1974C32.179 32.648 32.4105 33.02 32.4748 33.4198C32.5262 33.5999 32.6803 33.767 32.7577 33.9205C32.8734 33.9595 32.9508 34.1397 33.0795 34.1397C33.0795 34.2938 33.2597 34.204 33.2467 34.3588C33.3754 34.4355 33.4781 34.5902 33.6199 34.6032C33.6069 34.7963 33.813 34.8341 33.8774 34.9888C33.2857 34.6676 32.7199 34.2436 32.1412 33.845C31.9995 33.5746 31.6393 33.3047 31.6145 32.9451C31.4084 32.6226 31.2927 32.276 31.1769 31.917C31.1769 31.904 30.6496 31.4528 30.6626 31.3761C30.9956 31.2839 31.2011 31.503 31.4715 31.5153ZM29.5937 31.4132C29.8128 31.5153 30.0183 31.6701 30.2367 31.7988C30.5326 31.9152 30.2751 32.3002 30.4682 32.4673C30.3265 33.1233 30.7133 33.7918 30.7133 34.4343C30.7133 34.615 30.7257 34.8849 30.662 35.0897C30.4435 34.589 30.2887 33.9973 29.9155 33.5609C29.7484 32.9686 29.6846 32.3385 29.4785 31.7864C29.3498 31.5549 29.0669 31.5153 28.9772 31.2721C29.2211 31.2331 29.3492 31.4386 29.5937 31.4132ZM28.2691 31.2838C28.7321 31.5289 28.7451 32.133 28.9252 32.5446L29.1821 33.5349C29.3498 33.9199 29.6067 34.191 29.7738 34.589C29.7998 35.0136 29.697 35.437 29.8771 35.8615L29.7868 35.8492C29.697 35.5527 29.5423 35.2698 29.4779 34.948C29.4012 34.8075 29.2211 34.628 29.1053 34.4869C28.6937 33.8815 28.2951 33.3035 28.2821 32.5446C28.0896 32.0049 27.8068 31.5543 27.4336 31.1167L27.2404 31.0394C27.652 30.9756 27.9225 31.2071 28.2691 31.2838ZM10.8199 32.3521C10.55 32.4159 10.2796 32.648 9.95833 32.5706C10.4343 32.1467 10.8199 31.6707 11.1547 31.131L11.3472 30.8215C11.3342 31.3996 11.1417 31.9152 10.8199 32.3521ZM21.6341 30.603C22.2511 30.7188 22.9332 30.7188 23.5757 30.6674C23.9619 30.538 24.4502 30.603 24.8618 30.6154C25.2734 30.6538 25.698 30.6674 26.0576 30.8345C26.2631 30.8345 26.3789 31.092 26.585 31.079C26.9322 31.4522 26.9446 31.9932 26.8938 32.5069C26.4302 33.4464 27.4725 34.0369 27.1123 34.9882C26.9198 34.7177 26.9966 34.217 26.6747 33.9979C26.6747 33.8692 26.559 33.7411 26.4432 33.6507C26.057 33.0596 26.4686 32.3775 26.4043 31.6967C26.1734 31.4516 26.1734 30.9892 25.6844 31.079C25.1187 31.5933 25.2858 32.5836 25.4529 33.2273C25.5433 33.4464 25.5433 33.767 25.646 34.0369C25.5947 34.256 25.5947 34.4999 25.4783 34.706C25.4913 35.0798 25.2858 35.4382 25.3756 35.7867C25.2982 35.2451 25.3496 34.6026 25.3372 33.9979C24.8099 33.0466 24.4756 32.2754 23.9483 31.3755C23.7038 31.053 23.6654 31.1823 23.4339 31.144C22.4696 32.3911 23.9867 33.6123 23.5113 34.9882C23.408 34.5129 23.2792 34.0109 23.0613 33.5746C22.7649 33.3171 22.8299 32.9185 22.6367 32.5972C22.5594 32.2754 22.6627 31.839 22.4696 31.5686C22.4566 31.3755 22.2771 31.2851 22.1224 31.1693L21.8909 31.105C21.6978 31.2077 21.6718 31.3878 21.5561 31.5296C21.4787 32.0693 21.402 32.6746 21.6978 33.15H21.6334C21.4787 33.0466 21.5177 32.8789 21.3766 32.7377C21.1835 32.1337 21.2218 31.4138 20.9904 30.7577C20.965 30.5009 20.6431 30.6042 20.5788 30.3728C20.9272 30.4737 21.2615 30.5906 21.6341 30.603ZM14.4977 30.3455C14.4073 30.6414 14.2915 30.8852 14.1758 31.1681C13.9183 31.7481 13.3656 32.2358 12.9924 32.7761L12.2719 33.47C12.0664 33.5733 11.7706 33.5603 11.5775 33.496C11.4234 33.3796 11.2303 33.3158 11.1405 33.1871C11.5651 33.085 11.9761 32.994 12.3493 32.7501C12.8253 32.3515 13.2882 31.8508 13.6738 31.3872C13.841 30.9886 14.1622 30.7435 14.3937 30.3845C14.4333 30.3715 14.4593 30.3332 14.4977 30.3455ZM19.5123 29.9853C19.7568 30.166 20.0787 30.3715 20.1684 30.6928C20.2718 31.1947 19.9499 31.6187 19.8082 32.0687C19.8082 32.5453 20.13 32.8919 20.1684 33.3548C20.0917 34.1007 19.7568 34.7307 19.4226 35.3614C19.3452 36.132 18.5226 36.4273 18.2008 37.0833H18.1364C18.3295 36.4006 19.0754 36.0287 19.1911 35.3212C19.3068 34.7561 19.4356 34.1904 19.5253 33.5993C19.5253 33.4192 19.3712 33.2905 19.3452 33.1227C19.2418 33.0584 19.1137 32.994 18.972 33.0454C18.7015 33.1617 18.496 33.3672 18.3029 33.5993C18.2769 33.3542 18.509 33.2001 18.548 32.968C18.8049 32.7495 18.8439 32.4407 19.1137 32.2352C19.2425 31.9393 19.2295 31.5921 19.3836 31.3092C19.4096 30.8729 19.448 30.3709 19.422 29.9847L19.5123 29.9853ZM18.8952 29.549C18.9336 29.6907 19.1391 29.7284 19.1013 29.9216C19.2047 30.0373 19.0754 30.218 19.0624 30.3332C18.561 30.9502 18.2398 31.7864 17.8919 32.4933C17.8796 32.8782 17.5707 33.2267 17.4296 33.5993C17.3522 33.7404 17.1975 33.8562 17.0564 33.8686C17.4166 32.9439 17.6864 31.9405 18.1234 30.9892C18.2132 30.6674 18.3939 30.2694 18.2132 29.9346C18.0461 29.8832 17.9817 29.7544 17.8406 29.6647C17.7502 30.1029 17.4803 30.4625 17.429 30.9762C17.2612 31.5809 16.94 32.1077 16.6701 32.648C16.5414 33.0206 16.3099 33.3041 16.0531 33.6123H15.9757C16.2072 33.1623 16.3229 32.6616 16.5284 32.198C16.5928 31.9028 16.6955 31.6837 16.7729 31.3625C16.7859 31.2337 16.7599 31.105 16.7085 30.9892C16.3867 30.9112 16.3997 31.4138 16.0914 31.3365C16.0011 31.105 16.2072 30.9892 16.2072 30.7701C16.4263 30.257 16.5934 29.7167 16.8892 29.2519C17.3132 28.9164 17.9693 29.0971 18.4069 29.2519L18.8952 29.549ZM8.8139 29.3422C8.93027 29.4444 8.99402 29.5483 9.11038 29.7278C9.28987 29.9086 9.27749 30.2044 9.36724 30.4223C9.32886 30.7695 9.2255 31.1167 8.93027 31.3358C8.93027 31.4516 8.8269 31.5673 8.73716 31.6063C8.4413 31.6831 8.15782 31.7864 7.84959 31.7994C7.60511 31.8384 7.28326 31.6831 7.0134 31.6831V31.6187L7.81122 31.5673C8.14606 31.2838 8.68578 31.2839 8.82752 30.7695C8.87889 30.3715 9.04601 29.7798 8.57004 29.523C8.32556 29.3026 8.0687 29.1231 7.74685 29.0847C7.70847 29.0458 7.70847 29.0074 7.72085 28.9814C8.10707 29.0711 8.47968 29.1491 8.8139 29.3422ZM10.0357 28.8644C10.0871 28.9678 10.1644 29.0575 10.2542 29.1485C10.3186 29.5613 10.3569 29.9729 10.1768 30.3715C10.0221 30.577 9.81659 30.8982 9.6111 31.1044L9.57211 31.066C9.64948 30.6154 9.91933 30.2044 9.81659 29.7161C9.63648 29.497 9.6111 29.1869 9.36662 29.0451C9.08376 28.8 8.69816 28.7097 8.33794 28.5803C8.29956 28.6837 8.13245 28.6063 8.04208 28.6323V28.5419C8.11945 28.5549 8.24757 28.5549 8.28656 28.4776C8.69816 28.5302 9.05777 28.2467 9.43037 28.4776C9.53311 28.5036 9.62348 28.5679 9.73922 28.5803L10.0357 28.8644ZM16.092 28.6583C16.2592 28.9164 16.2722 29.3546 16.1688 29.6381C16.2072 29.8442 16.0271 29.9599 16.0531 30.166C15.8859 30.3208 15.8729 30.603 15.7182 30.7955C15.5257 30.7695 15.6668 30.538 15.6025 30.4223C15.3066 31.0146 14.8306 31.5153 14.5478 32.107C14.458 32.1844 14.419 32.3261 14.2909 32.3261C14.2266 31.9405 14.6512 31.6831 14.6382 31.2838C14.7669 31.2455 14.7285 30.9886 14.8566 30.8735C14.8696 30.4737 15.1785 30.2174 15.2039 29.8058C15.423 29.4066 15.3326 28.8644 15.3586 28.3996C15.2429 28.2975 15.3072 28.1297 15.1915 28.027H15.2819L16.092 28.6583ZM11.5143 27.9502C11.6431 28.1557 11.7198 28.4132 11.9259 28.6063C11.9389 28.8143 12.0287 29.0971 12.0931 29.2519H12.1834C12.0807 29.7674 12.2992 30.3338 12.0807 30.7961C11.9903 30.9892 12.0163 31.2591 11.8362 31.3878L11.7718 31.2975C11.9643 30.7695 11.8492 30.1153 11.7075 29.5867C11.7075 29.497 11.6177 29.471 11.5403 29.445C11.2575 29.7161 11.078 30.0509 10.9103 30.3721C10.8459 30.4229 10.7431 30.3721 10.6918 30.4495C10.7301 30.2818 10.8075 30.2304 10.8589 30.0893C10.8719 29.8702 10.8973 29.6511 11.0136 29.471C11.052 28.9944 11.104 28.4262 11.078 28.001L11.2321 27.7825C11.2829 27.8852 11.4246 27.8852 11.5143 27.9502ZM14.7675 27.8852C14.7675 28.3878 14.3813 28.7214 14.3559 29.2129L14.0731 29.8058C13.3526 30.3332 13.0698 31.2585 12.4267 31.8892C12.2719 32.12 11.9767 32.3769 11.7062 32.4283C12.1178 32.1064 12.4013 31.6181 12.6452 31.1811C12.8123 30.5504 12.8643 29.8566 13.0698 29.2506C13.3402 29.0309 13.5717 28.7474 13.7388 28.4509C13.7902 28.425 13.8292 28.4769 13.8422 28.5159L13.8038 29.0965C13.8812 29.0835 13.9196 29.1999 13.9839 29.1349C14.1127 29.0061 14.0873 28.8384 14.177 28.7208C14.151 28.3736 14.164 27.975 14.3955 27.7051C14.575 27.6408 14.7675 27.6667 14.7675 27.8852ZM8.09407 27.7825L8.13307 27.8469C7.50236 28.2077 6.8599 28.5036 6.22982 28.9554C6.22982 28.8774 6.15245 28.6967 6.29419 28.6589C6.92427 28.4262 7.23312 27.4359 8.04332 27.6674L8.09407 27.7825ZM13.0957 26.7538C13.0828 26.8955 13.0314 27.0243 13.0444 27.1784C12.954 27.3845 12.7869 27.4613 12.7225 27.6544C12.6068 27.7961 12.478 27.8599 12.3239 27.9508C12.2849 27.5522 12.7225 27.2694 12.504 26.8962C12.4013 26.7544 12.3493 26.6127 12.2336 26.5106C12.2719 26.3428 12.504 26.4202 12.6582 26.3818C12.8519 26.4326 13.0704 26.5347 13.0957 26.7538ZM13.7902 26.8182C13.7772 26.9989 13.8162 27.14 13.8929 27.2818C13.7135 27.6544 13.7902 28.2591 13.3402 28.5166H13.0444C12.941 28.4256 12.8643 28.3488 12.8389 28.1941C13.0444 27.7311 13.3526 27.2941 13.3916 26.7414C13.3526 26.5743 13.3272 26.4202 13.2629 26.2525C13.6361 26.2401 13.6101 26.6121 13.7902 26.8182ZM13.5723 25.7251C13.8676 26.0594 14.2538 26.3552 14.2668 26.8052C14.2408 26.8182 14.2024 26.7928 14.1764 26.8312C14.2792 26.8442 14.2538 26.9599 14.2792 27.0119C14.7935 27.2168 15.3982 27.1536 15.7832 27.629C16.1694 27.7577 16.4399 28.2077 16.8125 28.4002C17.3912 28.4522 18.0213 28.3884 18.574 28.5302C19.1273 28.9424 19.7444 29.2259 20.3485 29.5743L21.5963 29.9352C22.9592 30.0769 24.3605 29.9482 25.724 29.8968C26.5986 29.8708 27.4725 30.1679 28.2827 30.4111C29.1703 30.6042 30.212 30.5529 31.1503 30.5015C31.729 30.5529 32.3591 30.6049 32.8988 30.6946C33.3234 30.7714 33.7604 30.8227 34.159 30.9131V30.9775C35.2137 31.0678 35.3808 32.0575 36.2813 32.4567C36.3711 32.5471 36.3711 32.7526 36.5252 32.7526C36.8984 33.1772 37.3484 33.4724 37.7606 33.8463L38.9942 34.2709C39.6379 34.4114 40.4091 34.3606 41.0645 34.3216C41.2706 34.1539 41.5151 34.0258 41.746 33.988C41.8233 33.6662 42.2219 33.6532 42.2609 33.3059C42.6979 32.9835 42.6212 31.6595 42.467 31.2863C42.4287 31.0295 42.1328 30.876 42.1328 30.6055C41.5157 29.9234 40.8597 29.4221 40.0625 28.9702C39.6892 28.8025 39.4448 28.6979 38.9948 28.519C38.0565 28.3773 37.0922 28.2739 36.1278 28.1966C34.8547 28.1452 33.7616 28.3773 32.5274 28.4027H29.1585L28.0135 28.1848C27.7696 28.0814 27.7306 28.0431 27.4998 27.9143C26.767 27.6568 26.0849 27.2849 25.3007 27.1431C25.2103 27.0658 25.1082 26.9884 25.0048 26.937C25.0692 26.7185 25.352 26.7823 25.4554 26.5638C25.6485 26.5898 25.7643 26.4481 25.9314 26.4481L27.0374 26.461C27.7189 26.6145 28.362 26.8596 28.9791 27.1809C29.7763 27.2966 30.5481 27.6568 31.3966 27.426C32.7979 27.2452 34.2128 27.2329 35.6271 27.1809C36.5141 27.2582 37.427 27.2712 38.2886 27.413C40.4747 27.9533 43.1621 28.9189 43.9079 31.2869C44.6284 33.8079 41.9403 36.1475 39.407 35.5057C38.7899 35.4537 38.2626 35.2339 37.6969 35.0421C37.7352 35.6214 38.1604 36.1209 38.3783 36.7008C38.5714 37.6132 38.944 38.3336 39.2919 39.2205C39.6651 39.6328 39.948 40.1985 40.3973 40.5711C40.4877 41.0217 41.015 40.8676 41.2595 41.1875C41.6971 41.3807 42.2238 41.4456 42.7122 41.5484C42.7122 41.869 42.8669 42.1141 42.8923 42.4223C43.0724 43.0784 43.4456 43.6577 43.7285 44.3392C43.4586 45.0343 42.7251 45.6371 42.545 46.4226L37.6969 46.4473C37.7099 45.8166 37.9413 45.2385 38.4817 44.8665C39.0858 44.5571 39.6775 44.2222 40.4103 44.2098C40.4617 44.1845 40.4233 44.1325 40.4363 44.0935C40.2946 43.927 40.1274 43.7593 40.0637 43.5538C39.7938 43.2461 39.4336 42.9243 39.2151 42.5758C38.1474 42.1141 37.2475 41.4327 36.2572 40.8409C36.0127 40.6732 35.9353 40.4163 35.7299 40.2232C35.1635 39.785 34.6108 39.3629 34.0971 38.7836C33.2609 38.2562 32.2192 37.8063 31.2939 37.5624C29.4036 37.4584 28.1175 37.7673 26.5485 38.307C25.854 38.4871 25.1212 38.4871 24.5295 38.385C24.337 38.1281 24.298 37.8056 24.1699 37.5228C24.2082 37.2919 23.9254 37.2399 23.7966 37.0722C23.1666 36.8921 22.5235 36.3524 21.9961 35.8634C22.1633 35.9668 22.1119 36.34 22.3434 36.4031C22.6262 36.803 23.0502 37.0462 23.4104 37.2919C23.5645 37.3037 23.6933 37.3557 23.7836 37.4844C23.7966 38.2302 24.1952 38.77 24.311 39.5046C24.761 40.1861 24.8637 41.0594 25.4424 41.7793C25.6095 41.921 25.6739 42.3072 25.88 42.4743L26.1369 42.7176L26.1629 45.4186C26.2272 45.6371 26.2142 45.8692 26.3684 46.0617C26.5355 46.0351 26.6258 45.8309 26.7286 45.7015C26.8957 45.3277 27.0244 45.3277 27.2689 44.994C27.6805 44.7372 28.1949 44.4413 28.6058 44.5051C28.8633 44.5435 28.9791 44.2742 29.2235 44.2482C29.5324 43.927 29.9174 43.3873 30.381 43.2591C30.6378 43.014 30.8055 42.9503 31.1138 42.6414C30.998 41.9724 30.5741 41.3287 30.4707 40.5965C30.5091 39.7844 30.0207 38.9631 30.4707 38.2432C30.4063 38.0755 30.6254 38.1405 30.7028 38.0885C31.1912 38.1405 31.6801 38.1523 32.1301 38.3194C32.7738 38.3974 33.2491 38.757 33.8272 38.9631C34.1875 39.2589 34.5347 39.6693 34.9593 39.9918C34.9847 40.1595 35.2291 40.2226 35.2161 40.3396C34.9593 40.5445 35.01 40.9053 34.6888 41.047C34.2902 41.6778 34.0587 42.3846 33.8526 43.092C33.8526 43.3489 33.7369 43.5661 33.7109 43.7995C33.441 44.2488 32.952 44.3392 32.8623 44.416C32.1041 44.9817 32.0007 45.8432 31.2679 46.383H21.3772C21.8532 44.5701 22.7915 44.7749 23.4086 44.4549C23.4989 44.2105 23.5373 43.8372 23.679 43.6181C23.7818 43.3879 23.6147 43.2969 23.4346 43.2338C22.8812 42.6278 22.3929 41.8572 21.7628 41.2915C21.5313 40.8669 21.0683 40.6738 20.7081 40.4033C19.8596 39.9924 18.985 39.5158 18.3165 38.7316C18.2008 38.7056 18.1748 38.5533 18.098 38.4611C17.1201 37.8453 16.0147 37.5995 14.986 37.1378C14.0601 36.5201 13.3916 35.7743 12.5554 35.0414L11.9637 33.8197C11.5014 33.5108 10.8966 33.3951 10.6008 32.8801C10.0988 32.6492 9.49474 32.8417 9.04477 32.5075C9.03177 32.4815 9.01877 32.4561 8.9934 32.4301C9.13513 32.3534 9.26326 32.2884 9.43037 32.276C9.57211 32.0315 9.7776 31.9034 9.99608 31.7877C10.0481 31.7493 10.0351 31.6713 10.0351 31.6199C9.93171 31.5556 9.85435 31.3885 9.68723 31.4398C8.81267 32.5199 9.21188 31.8137 8.09284 32.4048C7.68124 32.3918 7.21827 32.5465 6.85866 32.3404C6.65318 32.3404 6.67855 32.1479 6.58881 32.0192C6.70455 31.7363 6.53743 31.4144 6.58881 31.0796C6.65318 31.0796 6.70455 31.0926 6.75592 31.0666C6.70455 31.0282 6.64018 31.0406 6.58881 31.0158C6.55043 30.8611 6.64018 30.7577 6.75592 30.655C6.92303 30.7707 6.70455 31.2207 7.07777 31.0926C7.20651 31.2467 7.36063 31.0796 7.50175 31.0796C7.69486 31.0796 7.96472 31.118 7.99071 30.8747C8.17082 30.8221 8.42768 30.6686 8.46606 30.4501C8.53043 30.231 8.5948 30.0125 8.56942 29.7421C8.47906 29.562 8.32494 29.51 8.23457 29.2921C8.09284 29.3169 7.95172 29.2661 7.82298 29.2265C7.21827 29.1621 6.70393 29.3435 6.12584 29.3292L5.90735 29.2401C6.04847 28.8013 5.98472 28.7493 5.92035 28.4262C6.15183 28.2981 6.33194 28.079 6.48606 27.8729C6.48606 27.8599 6.55043 27.3071 6.53743 27.1784C6.80791 27.0113 6.88466 26.9853 7.12914 26.8702C7.8106 26.7414 8.26119 27.1017 8.87765 27.1147C9.2515 27.205 9.58511 27.3585 9.9967 27.3585C10.0741 27.4359 10.2158 27.3845 10.2926 27.4873H10.55C10.498 27.3195 10.4727 27.088 10.4857 26.8702C10.3693 26.7154 10.1124 26.6634 9.98371 26.6121C9.44337 26.7154 8.86528 26.7154 8.28656 26.7154C8.38931 26.6634 8.36331 26.4326 8.54343 26.4196C8.69816 26.3292 8.77491 26.1101 8.96802 26.1231C9.2255 25.8922 9.64948 26.0074 9.98371 25.9436C10.6912 26.0594 11.437 25.995 12.1952 26.034C12.4267 25.8922 12.6452 25.7505 12.928 25.7245C13.1094 25.532 13.3402 25.7765 13.5723 25.7251ZM5.93396 27.2044C5.93396 27.4613 5.89559 27.6804 5.68948 27.8469C5.52175 27.8989 5.29026 28.053 5.12315 27.8729H5.13615C5.12315 27.7441 5.07178 27.603 5.07178 27.4235C5.17452 27.2044 5.49575 27.2168 5.63749 27.1147C5.76685 27.088 5.8436 27.14 5.93396 27.2044ZM7.32225 29.7278C7.15452 29.7798 7.18113 29.5991 7.07777 29.5353C6.9874 29.6901 7.10377 29.9339 6.97503 30.1023C6.80729 30.0119 6.72992 29.7928 6.64018 29.6381C6.46007 29.7154 6.53681 29.9339 6.44707 30.1023C6.3567 30.0633 6.25396 29.9859 6.24158 29.8832C6.18959 29.7674 6.08684 29.6511 6.08684 29.497L7.37301 29.445C7.38662 29.5353 7.37362 29.6511 7.32225 29.7278ZM8.12007 30.2564C7.95234 30.6036 7.6571 31.0152 7.19413 31.0152V30.6674C7.425 30.3715 7.74685 30.2564 8.12007 30.2564Z" fill="#9AADBB"/>
<path fill-rule="evenodd" clip-rule="evenodd" d="M69.2254 12.8699H67.6235V4.23193H74.8645V12.8699H73.2633V5.66293H69.2254V12.8699Z" fill="#BAC9D4"/>
<path fill-rule="evenodd" clip-rule="evenodd" d="M77.355 4.64107C78.2921 4.24928 79.8425 3.99365 80.9838 3.99365C83.7437 3.99365 85.0051 4.99882 85.0051 8.52555C85.0051 12.0523 83.6762 13.1088 81.1714 13.1088C80.0808 13.1088 79.3993 12.8024 78.9568 12.4954V16.1416H77.355V4.64107ZM78.9568 10.6547C78.9568 11.3195 79.8765 11.6939 80.9838 11.6939C82.7385 11.6939 83.3179 11.0465 83.3179 8.55897C83.3179 5.90123 82.7385 5.42403 80.9838 5.42403C80.2683 5.42403 79.5015 5.52615 78.9568 5.73102V10.6547Z" fill="#BAC9D4"/>
<path fill-rule="evenodd" clip-rule="evenodd" d="M92.9301 6.8383C91.7374 8.93404 90.2377 11.0638 88.8413 12.8699H87.2222V4.23193H88.8407V10.5018C90.2377 8.69575 91.6686 6.41309 92.9294 4.23193H94.5306V12.8699H92.9294V6.8383H92.9301Z" fill="#BAC9D4"/>
<path fill-rule="evenodd" clip-rule="evenodd" d="M104.415 4.23193H106.783V12.8699H105.199V5.90184C104.262 7.89545 103.239 10.3657 102.541 12.3079H101.212C100.479 10.3316 99.4913 7.84408 98.6223 5.90184V12.8699H97.0205V4.23193H99.474C100.377 6.14013 101.195 8.031 101.978 10.0079C102.745 7.99696 103.529 6.1228 104.415 4.23193Z" fill="#BAC9D4"/>
<path fill-rule="evenodd" clip-rule="evenodd" d="M109.002 8.50822C109.002 4.98149 110.314 3.99365 113.023 3.99365C115.749 3.99365 117.044 4.98149 117.044 8.50822C117.044 12.0523 115.766 13.1082 113.023 13.1082C110.297 13.1082 109.002 12.0523 109.002 8.50822ZM110.706 8.54226C110.706 11.1319 111.268 11.728 113.023 11.728C114.778 11.728 115.341 11.1319 115.341 8.54226C115.341 5.83315 114.778 5.37328 113.023 5.37328C111.268 5.37328 110.706 5.83315 110.706 8.54226Z" fill="#BAC9D4"/>
<path fill-rule="evenodd" clip-rule="evenodd" d="M119.278 4.64107C120.215 4.24928 121.765 3.99365 122.907 3.99365C125.667 3.99365 126.928 4.99882 126.928 8.52555C126.928 12.0523 125.599 13.1088 123.094 13.1088C122.004 13.1088 121.322 12.8024 120.88 12.4954V16.1416H119.278V4.64107ZM120.88 10.6547C120.88 11.3195 121.799 11.6939 122.907 11.6939C124.661 11.6939 125.241 11.0465 125.241 8.55897C125.241 5.90123 124.661 5.42403 122.907 5.42403C122.191 5.42403 121.424 5.52615 120.88 5.73102V10.6547Z" fill="#BAC9D4"/>
<path fill-rule="evenodd" clip-rule="evenodd" d="M135.671 12.6483C135.006 12.938 133.899 13.1082 133.115 13.1082C130.457 13.1082 128.89 12.0517 128.89 8.50822C128.89 4.98149 130.474 3.99365 133.115 3.99365C133.899 3.99365 135.023 4.16386 135.671 4.40277L135.245 5.83377C134.666 5.57815 133.899 5.44198 133.183 5.44198C131.429 5.44198 130.594 5.86781 130.594 8.54288C130.594 11.0818 131.429 11.6605 133.183 11.6605C133.933 11.6605 134.666 11.473 135.245 11.2347L135.671 12.6483Z" fill="#BAC9D4"/>
<path fill-rule="evenodd" clip-rule="evenodd" d="M142.726 12.8699C141.04 9.63283 139.864 8.96808 138.74 8.7465V12.8699H137.138V4.23193H138.74V8.38875C139.455 7.7073 140.852 6.1228 142.436 4.23193H144.396C142.573 6.46384 141.347 7.81004 140.835 8.16779C141.755 8.52554 142.573 8.98541 144.634 12.8699H142.726Z" fill="#BAC9D4"/>
<path fill-rule="evenodd" clip-rule="evenodd" d="M151.605 6.8383C150.412 8.93404 148.912 11.0638 147.516 12.8699H145.897V4.23193H147.516V10.5018C148.913 8.69575 150.344 6.41309 151.605 4.23193H153.206V12.8699H151.605V6.8383Z" fill="#BAC9D4"/>
<path fill-rule="evenodd" clip-rule="evenodd" d="M161.386 6.83855C160.194 8.93429 158.694 11.0641 157.298 12.8702H155.679V4.23219H157.298V10.5021C158.695 8.696 160.126 6.41334 161.386 4.23219H162.988V12.8702H161.386V6.83855ZM158.149 0.995117C158.149 1.88082 158.559 2.08569 159.393 2.08569C160.092 2.08569 160.671 1.89815 160.638 0.995117H161.762C161.762 2.54557 160.944 3.24374 159.359 3.24374C157.809 3.24374 156.957 2.54557 156.957 0.995117H158.149Z" fill="#BAC9D4"/>
<path fill-rule="evenodd" clip-rule="evenodd" d="M171.748 12.8699C170.062 9.63283 168.886 8.96808 167.762 8.7465V12.8699H166.161V4.23193H167.762V8.38875C168.477 7.7073 169.875 6.1228 171.459 4.23193H173.419C171.596 6.46384 170.369 7.81004 169.858 8.16779C170.777 8.52554 171.596 8.98541 173.657 12.8699H171.748Z" fill="#BAC9D4"/>
<path fill-rule="evenodd" clip-rule="evenodd" d="M174.937 4.64107C175.874 4.24928 177.425 3.99365 178.566 3.99365C181.326 3.99365 182.587 4.99882 182.587 8.52555C182.587 12.0523 181.258 13.1088 178.753 13.1088C177.663 13.1088 176.981 12.8024 176.538 12.4954V16.1416H174.937V4.64107ZM176.538 10.6547C176.538 11.3195 177.457 11.6939 178.565 11.6939C180.32 11.6939 180.899 11.0465 180.899 8.55897C180.899 5.90123 180.32 5.42403 178.565 5.42403C177.85 5.42403 177.082 5.52615 176.538 5.73102V10.6547Z" fill="#BAC9D4"/>
<path fill-rule="evenodd" clip-rule="evenodd" d="M191.755 12.4266C190.733 12.8525 189.216 13.1081 188.057 13.1081C185.451 13.1081 184.48 12.4607 184.48 10.2114C184.48 7.75795 185.911 7.36616 187.887 7.36616C188.705 7.36616 189.37 7.45157 190.188 7.62178C190.188 5.81571 189.728 5.42392 187.837 5.42392C186.95 5.42392 185.979 5.54337 185.281 5.81571L184.94 4.41875C185.706 4.21388 186.882 3.99292 188.092 3.99292C190.631 3.99292 191.755 4.74246 191.755 7.34945V12.4266ZM190.188 8.8151C189.643 8.67893 188.91 8.62756 188.178 8.62756C186.713 8.62756 186.218 8.78106 186.218 10.1266C186.218 11.5743 186.61 11.7959 188.16 11.7959C188.876 11.7959 189.609 11.6598 190.188 11.4555V8.8151Z" fill="#BAC9D4"/>
<path fill-rule="evenodd" clip-rule="evenodd" d="M199.902 6.83855C198.709 8.93429 197.21 11.0641 195.813 12.8702H194.195V4.23219H195.813V10.5021C197.211 8.696 198.641 6.41334 199.902 4.23219H201.504V12.8702H199.902V6.83855ZM196.665 0.995117C196.665 1.88082 197.073 2.08569 197.908 2.08569C198.607 2.08569 199.186 1.89815 199.152 0.995117H200.276C200.276 2.54557 199.459 3.24374 197.874 3.24374C196.324 3.24374 195.472 2.54557 195.472 0.995117H196.665Z" fill="#BAC9D4"/>
<path fill-rule="evenodd" clip-rule="evenodd" d="M147.333 24.0454H127.606C127.415 24.0454 127.258 24.2008 127.248 24.3926C126.753 33.4843 125.074 43.2772 122.643 51.2783C122.61 51.386 122.63 51.5079 122.697 51.6026C122.763 51.6936 122.872 51.7505 122.986 51.7505H129.736C129.892 51.7505 130.032 51.6478 130.079 51.4949C131.97 45.329 133.487 37.3199 134.062 30.4997H140.537V51.3841C140.537 51.584 140.699 51.7493 140.894 51.7493H147.334C147.534 51.7493 147.691 51.584 147.691 51.3841V24.4149C147.693 24.2119 147.534 24.0454 147.333 24.0454Z" fill="#BAC9D4" stroke="#BAC9D4" stroke-width="0.618943"/>
<path fill-rule="evenodd" clip-rule="evenodd" d="M230.753 24.0454H224.317C224.12 24.0454 223.958 24.21 223.958 24.4149V45.2813C222.543 45.6855 221.133 45.8805 219.543 45.8805C215.273 45.8805 214.292 44.551 214.292 38.775V24.4149C214.292 24.2119 214.133 24.0454 213.931 24.0454H207.494C207.296 24.0454 207.137 24.21 207.137 24.4149V39.4639C207.137 48.8774 210.249 52.5465 218.242 52.5465C222.792 52.5465 227.868 51.3618 230.881 50.1895C231.02 50.1332 231.115 50.0001 231.115 49.8497V24.4149C231.113 24.2119 230.952 24.0454 230.753 24.0454Z" fill="#BAC9D4" stroke="#BAC9D4" stroke-width="0.618943"/>
<path fill-rule="evenodd" clip-rule="evenodd" d="M93.7723 24.075H87.2332C87.0685 24.075 86.9237 24.1883 86.8859 24.3517C85.8498 28.5097 83.772 35.44 80.9806 42.7039L74.4087 24.2873C74.3573 24.1437 74.2255 24.0447 74.0726 24.0447H67.4505C67.336 24.0447 67.224 24.1041 67.1596 24.2031C67.0909 24.3009 67.0736 24.4272 67.1132 24.5392L76.9519 52.1063C75.9245 54.2181 75.001 55.9685 74.1085 57.665C73.4512 58.9134 72.8118 60.1222 72.1662 61.4158C72.1099 61.5291 72.1155 61.6628 72.1792 61.7717C72.2461 61.88 72.36 61.9462 72.4869 61.9462H79.6524C79.7867 61.9462 79.9074 61.8695 79.9711 61.7451C81.1873 59.3622 82.6864 56.0521 84.084 52.6633C88.2662 42.626 91.6425 33.1642 94.117 24.5423C94.1511 24.4303 94.1294 24.3102 94.062 24.2161C93.9926 24.127 93.8874 24.075 93.7723 24.075Z" fill="#BAC9D4" stroke="#BAC9D4" stroke-width="0.618943"/>
<path fill-rule="evenodd" clip-rule="evenodd" d="M117.159 44.6212C117.123 44.5296 117.058 44.4522 116.971 44.4139C116.883 44.3712 116.785 44.3687 116.694 44.4027C115.121 44.9932 112.178 45.4766 110.131 45.4766C105.642 45.4766 103.506 44.2412 103.506 37.2156C103.506 31.5968 104.16 28.9527 110.131 28.9527C111.824 28.9527 113.397 29.2046 115.39 29.7926C115.555 29.839 115.726 29.7641 115.81 29.6131C116.556 28.1827 117.456 26.4355 118.472 24.2927C118.517 24.1986 118.517 24.0853 118.478 23.9875C118.439 23.8941 118.356 23.8167 118.258 23.7851C115.616 22.9273 112.478 22.4321 109.659 22.4321C100.259 22.4321 96.0669 26.9585 96.0669 37.1066C96.0669 47.4058 100.259 51.9953 109.659 51.9953C112.013 51.9953 116.658 51.4927 118.896 50.5785C119.075 50.5055 119.167 50.3013 119.101 50.1112L117.159 44.6212Z" fill="#BAC9D4" stroke="#BAC9D4" stroke-width="0.618943"/>
<path fill-rule="evenodd" clip-rule="evenodd" d="M179.091 24.075H172.549C172.383 24.075 172.241 24.1883 172.2 24.3517C171.164 28.5134 169.089 35.4444 166.299 42.7039L159.727 24.2873C159.675 24.1437 159.54 24.0447 159.391 24.0447H152.768C152.653 24.0447 152.542 24.1041 152.473 24.2031C152.407 24.3009 152.39 24.4272 152.428 24.5392L162.268 52.1063C161.242 54.2138 160.32 55.9611 159.43 57.6551C158.77 58.906 158.131 60.1167 157.483 61.4146C157.425 61.5278 157.431 61.6615 157.496 61.7717C157.561 61.8788 157.679 61.945 157.803 61.945H164.966C165.099 61.945 165.224 61.8683 165.287 61.7451C166.5 59.3646 167.999 56.0545 169.399 52.6621C173.574 42.6427 176.951 33.1809 179.432 24.5411C179.465 24.429 179.445 24.309 179.378 24.2149C179.308 24.127 179.2 24.075 179.091 24.075Z" fill="#BAC9D4" stroke="#BAC9D4" stroke-width="0.618943"/>
<path fill-rule="evenodd" clip-rule="evenodd" d="M203.211 24.0454H184.155C183.956 24.0454 183.796 24.21 183.796 24.4149V51.386C183.796 51.5865 183.956 51.7511 184.155 51.7511H190.589C190.787 51.7511 190.948 51.5865 190.948 51.386V30.501H200.901C201.045 30.501 201.176 30.4137 201.23 30.2813C201.988 28.4591 202.764 26.5286 203.543 24.5511C203.588 24.4391 203.574 24.3091 203.51 24.2119C203.442 24.111 203.328 24.0454 203.211 24.0454Z" fill="#BAC9D4" stroke="#BAC9D4" stroke-width="0.618943"/>
</g>
<defs>
<clipPath id="clip0_8_710">
<rect width="231.442" height="62.0937" fill="white" transform="translate(0.278809 0.453125)"/>
</clipPath>
</defs>
</svg>
