<svg width="231" height="62" viewBox="0 0 231 62" fill="none" xmlns="http://www.w3.org/2000/svg">
<path fill-rule="evenodd" clip-rule="evenodd" d="M0.647461 44.9574C0.647461 47.4808 4.62541 52.1699 7.59819 52.1699H16.3327C20.2562 52.1699 23.2184 55.6248 23.2184 58.5376C23.7483 58.5376 23.7705 58.5376 24.3319 58.5376C24.3319 55.5933 26.2129 52.1594 31.2288 52.1594H39.8333C42.9571 52.1594 46.8491 47.4802 46.8491 44.9568C46.8491 30.5769 46.8491 16.2558 46.8491 1.92786L0.647461 1.91858V44.9574Z" fill="#CEDCE6" stroke="#BAC9D4" stroke-width="0.618943" stroke-miterlimit="22.9256"/>
<path fill-rule="evenodd" clip-rule="evenodd" d="M41.4509 51.7922C43.6642 50.9801 46.8555 47.2925 46.8555 44.7666V43.0255L30.4232 25.5676L46.8555 8.00944V1.91162H39.2376L23.7312 18.4126L8.22606 1.91162H0.646484V8.01006L16.9117 25.5682L0.646484 43.0255V44.9083C0.646484 47.4082 3.92812 50.826 6.01272 51.7922L23.7312 32.8167L41.4509 51.7922Z" fill="#A8B9C6" stroke="#BAC9D4" stroke-width="0.618943" stroke-miterlimit="22.9256"/>
<path fill-rule="evenodd" clip-rule="evenodd" d="M12.8673 24.8547C13.1632 25.1116 13.433 25.4718 13.6001 25.806C13.5358 25.8444 13.6261 25.8964 13.6385 25.9607C14.4357 26.0895 15.0788 26.6032 15.6575 27.1819C16.4547 27.2079 17.3033 27.0786 17.882 27.6065C18.6532 28.0063 19.3606 28.5739 20.2476 28.6897C21.5467 28.806 22.935 28.767 24.2082 28.6637C24.7485 28.6377 25.1985 28.78 25.7122 28.806C25.9437 28.8444 26.1498 28.9738 26.3683 29.0375C27.384 29.3854 28.6312 29.3854 29.7632 29.2826C30.92 29.3854 32.0644 29.5271 33.1451 29.7846C33.4273 30.0291 33.7752 30.0538 34.0704 30.2599C34.2505 30.3887 34.4436 30.5428 34.5334 30.7619C34.7909 30.9674 35.0224 31.2242 35.3182 31.3536C35.5751 31.457 35.5367 31.7906 35.8072 31.8933C36.2825 32.3946 36.7975 32.8836 37.4653 32.9616C37.7872 33.1033 38.1598 33.1033 38.533 33.1293C38.9316 33.1033 39.3816 33.2191 39.6768 32.9102C39.8445 32.8329 39.9597 32.6781 40.063 32.5494C40.3459 32.2028 40.1918 31.6241 40.2171 31.1617C39.8055 30.3379 38.8932 29.7221 38.07 29.2968C37.5941 29.1935 37.3118 28.884 36.7715 28.884C35.6524 28.7683 34.495 28.5875 33.3252 28.7293C32.5664 28.7553 31.8342 28.936 31.0364 28.884L27.5393 28.8586C27.0764 28.7423 26.5496 28.7169 26.0997 28.4965C25.3279 28.1611 24.6334 27.8392 23.7848 27.6077C23.3992 27.492 23.0266 27.3119 22.7945 26.9387C22.6528 26.6044 22.6782 26.1415 22.9616 25.8716C23.3349 25.6909 23.6307 25.3059 24.0807 25.3059C24.5307 25.1258 25.1737 25.2155 25.7011 25.2155C26.4215 25.3833 27.1154 25.6018 27.7714 25.962C28.4405 26.0647 29.096 26.4509 29.8034 26.1935C30.8191 26.1935 31.7451 25.936 32.7731 26.0004C33.9819 25.7689 35.1393 26.0647 36.3481 26.0777C39.2027 26.6688 42.8798 27.8269 43.4455 31.2638C43.8701 34.2212 40.6164 36.8702 37.7234 35.9059C37.9035 36.7167 38.2514 37.4471 38.5466 38.2461C38.7651 38.3879 38.8555 38.6695 38.9842 38.9016C39.2801 39.3262 39.6273 39.7762 40.1026 39.955C40.643 40.2899 41.3758 40.0838 41.8641 40.535C42.2634 41.5878 42.5716 42.6951 43.1627 43.7114C43.2271 44.2375 41.7998 46.116 41.5423 46.8866H35.4729C34.9196 46.1271 35.9743 44.2511 35.8462 44.4832C36.2831 43.9045 36.8878 43.4663 37.5433 43.2868C37.3242 43.1055 37.1961 42.7069 36.8619 42.7458C36.0003 42.078 34.9332 41.8211 34.149 40.9986C34.0587 41.1143 33.9045 41.2294 33.9045 41.3192C33.1581 42.2067 33.4929 43.6223 32.5156 44.3929C31.2685 44.8434 31.024 46.1277 30.2782 46.7974H19.0778C19.001 46.1042 18.936 45.1127 19.7592 44.2635C19.9907 43.9683 20.3639 43.9051 20.6338 43.6594C20.8009 43.504 21.0194 43.4923 21.2255 43.4403C21.2515 43.3759 21.3289 43.2868 21.2385 43.2218C20.7372 42.8108 20.4283 42.1931 19.9783 41.7054C19.6311 41.5247 19.49 41.0877 19.1298 40.946C18.7695 41.4727 18.4353 42.0006 18.3709 42.6431L17.947 43.1568C17.3039 43.2466 16.6738 43.6965 16.0951 44.058C14.8863 44.7525 14.7452 46.0108 14.3979 46.8853C14.2438 47.0011 14.0637 46.9249 13.8452 46.9249H7.33829C7.36366 46.1024 7.71151 45.2396 7.904 45.0217C7.94238 44.6231 8.35397 44.443 8.61145 44.1861C9.25453 43.9033 9.83325 43.5028 10.5531 43.4131C10.9647 42.372 12.1605 41.7679 12.6104 40.7392C12.8549 39.6709 13.035 38.6175 13.459 37.6278C12.8933 37.3827 12.4303 36.9067 11.916 36.5484C11.3893 35.93 10.4763 35.4807 10.2058 34.6959L9.897 34.0788C9.4854 33.8089 8.97106 33.6808 8.64983 33.2562C8.00675 33.2822 7.46641 32.961 6.88832 32.857C6.75958 32.922 6.64383 32.844 6.5021 32.909C6.0645 32.948 5.53778 32.987 5.15218 32.7933C4.94607 32.87 4.85571 32.6385 4.70221 32.5611C4.1235 32.0078 4.38036 31.3016 4.31599 30.5422C4.36736 30.3113 4.50848 30.0922 4.71521 29.9511C5.16518 29.6812 5.80826 30.0532 6.19386 29.7202C5.7049 29.5915 5.28092 29.8743 4.76658 29.8106C4.34199 29.8106 3.96938 29.6298 3.69891 29.2826C3.37767 28.8828 3.90501 28.4446 3.55717 28.0701C3.26131 28.0317 3.18395 27.7093 3.04283 27.4654C3.02983 27.0148 3.1072 26.5908 3.51879 26.321C3.85302 26.2312 4.16187 26.0895 4.52148 26.1149C4.80496 25.9347 5.07481 25.7423 5.42204 25.7033C6.63084 25.7676 7.27392 24.3533 8.59784 24.7136C9.22792 24.7903 9.92237 24.8163 10.5778 24.7779C10.7969 24.6362 11.0284 24.4561 11.2983 24.4431C11.4654 24.3404 11.7099 24.3917 11.9154 24.4047C12.2372 24.5205 12.6488 24.5075 12.8673 24.8547ZM28.0531 38.0512C27.8859 38.6676 28.0023 39.3639 28.1694 39.9532C28.0791 40.6216 28.4393 41.2276 28.6194 41.8193C28.131 42.333 27.6161 42.9117 26.9216 43.2713C26.4977 43.3233 25.9963 43.4527 25.5971 43.6062C25.5327 42.7836 25.8032 41.8694 25.0698 41.4324C24.6965 40.842 24.3109 40.236 24.0794 39.5682C23.9767 39.3497 23.8603 39.1306 23.7966 38.8997C25.4046 38.8218 26.7161 38.1929 28.0531 38.0512Z" fill="#BAC9D4"/>
<path fill-rule="evenodd" clip-rule="evenodd" d="M13.9647 42.5211C13.9647 42.5588 13.9647 42.5848 13.9263 42.6226C13.7078 42.5842 13.3866 42.7123 13.2318 42.5211V42.2357C13.2832 42.2617 13.2832 42.1862 13.2962 42.146L13.9647 42.5211ZM13.7202 41.5171C14.0804 41.8514 14.5304 41.9529 14.9544 42.1726C15.0707 42.1726 15.1858 42.1862 15.3016 42.2363C15.2892 42.2883 15.2118 42.3143 15.1605 42.3279C14.5811 42.3539 14.016 42.2883 13.6044 41.9034C13.5914 41.8 13.5141 41.5307 13.6688 41.4651C13.7078 41.4528 13.7202 41.4651 13.7202 41.5171ZM30.6681 41.2714L31.1564 41.311C30.8222 41.5301 30.3592 41.4788 29.9346 41.5165V41.2473C30.0126 41.2844 30.025 41.1817 30.0764 41.1557C30.2825 41.1959 30.5523 41.0548 30.6681 41.2714ZM22.3229 40.7967L21.6284 41.4794C21.5387 41.4658 21.4099 41.5178 21.3716 41.402V41.2089C21.4873 41.1705 21.5517 41.1062 21.6804 41.0932V41.0288C21.9379 41.0152 22.079 40.7453 22.3235 40.7206L22.3229 40.7967ZM14.0674 40.629C14.3249 40.7199 14.6337 40.7069 14.8906 40.7967C15.4309 41.0808 16.1514 41.3896 16.7041 41.8C15.9837 41.5685 15.0713 41.1823 14.2481 41.2974C14.1064 41.2597 13.9647 41.1557 13.8749 41.0282C13.8619 40.8988 13.8366 40.6803 13.8749 40.5132C13.9647 40.5138 14.016 40.5788 14.0674 40.629ZM31.8639 40.7577C31.2592 40.7961 30.5783 40.6679 29.9346 40.6809C29.8059 40.629 29.7161 40.5392 29.6134 40.4371L29.6264 40.2693C30.488 40.192 31.118 40.629 31.8639 40.7577ZM37.149 39.8949C37.0463 40.0762 36.9305 40.1282 36.7504 40.2563C36.3642 40.3851 36.1841 40.7199 35.7087 40.5912C35.6574 40.6036 35.6314 40.5912 35.5924 40.5528C35.8499 40.3461 36.2101 40.1282 36.5053 40.0762C36.7758 40.1542 36.8402 39.8844 37.149 39.8949ZM22.503 39.7674C22.529 39.8454 22.4386 39.9091 22.4002 39.9605C22.1558 40.0886 21.8983 40.3591 21.6674 40.5262C21.4099 40.5262 21.3326 40.6803 21.1011 40.7193H20.8052C20.7155 40.6283 20.7155 40.5002 20.5867 40.4488C20.7415 40.3071 20.9723 40.4606 21.1661 40.3845C21.6544 40.3337 22.1168 40.0892 22.503 39.7674ZM15.2892 40.0632C15.6111 40.0502 15.7782 40.4501 16.1248 40.4501C16.3823 40.7453 16.6781 40.8734 16.987 41.0665V41.1309C16.0734 40.5392 15.0317 40.4235 14.0804 39.9865C14.1064 39.8837 14.1064 39.7791 14.1578 39.7036C14.6078 39.6646 15.0057 39.7302 15.2892 40.0632ZM21.564 39.4078C21.2298 39.6906 20.6251 39.4208 20.3429 39.7302C20.2265 39.7042 20.2395 39.8324 20.1621 39.8584C19.9437 39.8584 19.7375 39.8584 19.5834 39.7302C19.4801 39.7538 19.4039 39.6653 19.3649 39.5885C19.5964 39.5885 19.8149 39.5365 20.0464 39.4468C20.5477 39.4078 21.0621 39.3812 21.5634 39.318L21.564 39.4078ZM36.9559 38.9832C36.9559 38.9968 36.9689 39.0098 36.9819 39.0228C36.7374 39.1125 36.4416 39.1645 36.2101 39.3186C35.9012 39.3954 35.6827 39.6386 35.4129 39.768C35.143 39.8955 34.8472 39.7432 34.5643 39.7172V39.6529C35.0143 39.4851 35.5156 39.3063 35.9656 39.0872C36.3128 39.0723 36.6223 39.0098 36.9559 38.9832ZM30.6297 39.0983C31.0029 39.1509 31.4145 39.214 31.7617 39.3434C31.8775 39.5365 32.2501 39.4598 32.4562 39.6653C31.4399 39.24 30.3852 39.82 29.4345 39.3186C29.3831 39.2283 29.3831 39.0228 29.5503 38.9572C29.9222 38.9832 30.2825 38.9968 30.6297 39.0983ZM15.7392 38.8557C16.2021 39.1515 16.6391 39.6003 17.0767 39.8844C16.2151 39.5755 15.2255 39.1125 14.3119 38.9572C14.2989 38.7139 14.492 38.7003 14.518 38.4695C14.5824 38.3667 14.7235 38.4695 14.8009 38.4961C15.1345 38.5976 15.4173 38.7647 15.7392 38.8557ZM30.2311 38.1866C30.7838 38.3147 31.3501 38.6378 31.9282 38.7901C31.1954 38.8161 30.5783 38.4695 29.8065 38.5728C29.6778 38.4825 29.4853 38.5208 29.3949 38.3277C29.4209 38.225 29.3689 38.16 29.4339 38.1092C29.7298 38.0839 29.9476 38.225 30.2311 38.1866ZM15.9707 38.3017C16.2925 38.4558 16.5754 38.6372 16.9226 38.7529L16.8966 38.7653C17.4623 39.2147 18.067 39.6913 18.6581 40.0769C18.5814 40.4247 18.3363 40.7967 18.0794 41.1055C17.9123 41.4131 17.8603 41.7622 17.7835 42.1082C17.6938 42.1466 17.6808 42.25 17.6424 42.3273C16.6261 42.5842 15.4173 43.6129 14.7105 44.3191C14.5941 44.6156 14.3497 44.8613 14.1955 45.1305C14.1832 45.4511 14.003 45.6845 13.9777 45.9921L8.49941 46.0181C8.44804 45.6702 8.64115 45.4907 8.84663 45.1943C9.24523 44.7313 9.75957 44.579 10.2485 44.3327C10.519 44.217 10.8402 44.243 11.1101 44.1544C11.7662 43.2149 12.5244 42.4171 13.2962 41.5171C13.3476 41.3116 13.4893 41.1563 13.5667 40.9774C13.7592 40.0632 14.0037 39.0729 14.3125 38.1866C14.2351 37.814 14.6987 38.0319 14.8782 38.0059C15.2248 38.1346 15.6104 38.199 15.9707 38.3017ZM36.5313 37.9799C36.3518 38.173 36.0046 37.9681 35.7991 38.2392C35.3609 38.4825 34.9239 38.7146 34.5129 39.0494C34.1787 39.1392 33.9602 38.9318 33.6774 38.8303C33.9472 38.675 34.3842 38.6626 34.5643 38.4057C35.1944 38.1736 35.8505 37.9935 36.5313 37.9167V37.9799ZM21.564 37.775C21.2812 38.0579 20.6765 38.0195 20.3806 38.2887C19.8663 38.4311 19.6868 39.0494 19.1725 39.24C18.915 39.2537 18.5807 39.3298 18.4006 39.0865C18.3103 39.0605 18.1568 39.0488 18.1568 38.9572C18.4396 38.9832 18.7225 38.8681 18.9923 38.7647C19.1211 38.623 19.3266 38.5462 19.5067 38.4688V38.4045C19.8155 38.2491 20.0724 38.1204 20.4456 38.0566C20.8182 37.9681 21.1784 37.8381 21.564 37.775ZM36.0046 37.26C35.6704 37.4278 35.2328 37.4018 34.9115 37.6469C34.3068 37.749 33.9732 38.3407 33.3815 38.4435C33.3295 38.3277 33.137 38.4175 33.0467 38.3543C32.9439 38.3017 32.7892 38.2497 32.7768 38.121C33.4199 38.2497 33.7027 37.5683 34.2555 37.4791C34.8596 37.4402 35.4129 37.26 36.004 37.1827L36.0046 37.26ZM20.96 36.9264C20.7668 37.0162 20.6127 37.0812 20.3682 37.1072C19.6992 37.4798 19.0307 37.9935 18.4136 38.4825C18.0788 38.6378 17.6932 38.5728 17.4487 38.3147C17.3973 38.3017 17.3973 38.2504 17.3973 38.2132C17.5391 38.2504 17.6288 38.1606 17.7316 38.1216C18.3493 37.801 18.8246 37.377 19.5067 37.1072C19.9567 37.0676 20.484 36.9524 20.96 36.9264ZM35.143 36.4635C33.9472 36.3867 33.5096 37.9037 32.2625 37.5819C32.1077 37.5058 31.8769 37.5559 31.7481 37.4538C32.0056 37.286 32.4556 37.4148 32.6741 37.0682C33.4583 36.7333 34.2425 36.4375 35.143 36.4251V36.4635ZM19.3136 36.219C19.1595 36.3087 18.9403 36.3347 18.8506 36.5018C18.7992 36.5148 18.7219 36.4888 18.6829 36.5148C18.2583 36.8237 18.0398 37.4135 17.5384 37.6853C17.1782 37.8381 16.792 37.6853 16.4454 37.5813C16.4454 37.5311 16.4708 37.4915 16.5098 37.4915C16.7289 37.3894 17.1145 37.2594 17.359 37.0806C17.5521 36.9648 17.7959 36.7327 17.989 36.617C18.3876 36.3861 18.8246 36.1664 19.3266 36.0772C19.4293 36.1156 19.3136 36.167 19.3136 36.219ZM16.3823 34.9452C16.1762 35.3964 16.0097 35.8464 15.8289 36.3081C15.7516 36.5668 15.6488 36.7977 15.4303 36.9896C15.379 37.0156 15.3016 36.9896 15.2756 37.0676C15.0701 37.1703 15.0181 36.8874 14.8126 36.9654C15.2242 36.5668 15.4687 36.1292 15.9311 35.691C15.9051 35.4738 16.1112 35.3444 16.1502 35.1513C16.2529 35.1253 16.2789 34.9836 16.3303 34.9192L16.3823 34.9452ZM15.2892 34.2136C15.1988 34.5868 15.0831 34.9984 14.9804 35.3704C14.864 35.3568 14.8132 35.4868 14.6975 35.4348C14.414 35.7176 14.3497 36.1162 14.0668 36.4251C14.0024 36.4003 13.9641 36.4505 13.9381 36.4765C13.6682 36.5025 13.3463 36.5025 13.2306 36.2196C13.4881 36.1812 13.5655 35.9745 13.7963 35.847C14.2469 35.3704 14.6839 34.8307 15.1468 34.2266C15.2496 34.0855 15.314 33.9184 15.4297 33.7896C15.3536 33.9178 15.4173 34.1362 15.2892 34.2136ZM32.1981 35.0993C33.137 35.1649 34.1273 35.0993 34.8985 35.5895C34.9889 35.7053 35.143 35.665 35.2458 35.7684C34.2945 35.665 33.3041 35.8204 32.3782 35.8971C31.9666 35.717 31.594 35.4478 31.1954 35.2664C31.0667 35.2021 30.1921 33.5055 30.2689 33.6473C31.0283 34.4841 31.1694 34.7781 32.1981 35.0993ZM13.99 33.1726C13.9003 33.6857 13.4887 34.0855 13.2826 34.5602C13.1285 34.7911 13.0511 35.0498 12.8326 35.2547C12.7299 35.267 12.6395 35.319 12.5238 35.293C12.4724 35.2287 12.3307 35.2671 12.2539 35.2151C12.1895 35.1253 12.1122 35.0238 12.0348 34.9452C12.421 34.7911 12.7163 34.5602 13.0895 34.3417C13.5005 33.9939 13.6812 33.5563 13.9251 33.1719L13.99 33.1726ZM20.1621 33.0946C20.5094 33.365 20.6895 33.8026 21.0627 34.0075C21.2812 34.1876 21.3326 34.5348 21.2688 34.8041C21.1914 35.0238 20.999 35.2027 21.0243 35.4608C20.9216 35.4484 20.9216 35.319 20.8312 35.2677L20.7668 34.7026H20.7798C20.7922 34.0725 20.2265 33.6355 20.0984 33.0952L20.1621 33.0946ZM34.3328 32.5932C34.4226 33.0178 34.5129 33.5328 34.6931 33.9555C34.5129 33.789 34.3588 33.5829 34.1527 33.4548C33.5492 33.0556 33.6514 32.3494 33.3815 31.7954L33.3555 31.6413C33.6774 31.9248 34.1911 32.0535 34.3328 32.5932ZM26 31.5392C26.1931 31.8728 26.3862 32.2714 26.5917 32.67C26.6177 32.9404 26.6821 33.2357 26.7848 33.4802C26.7848 34.1622 27.2992 34.6122 27.4403 35.2671C27.4787 35.5635 27.4273 35.821 27.3245 36.0519C27.2862 35.7573 27.1704 35.4484 27.0287 35.1779C26.9903 34.8177 26.6041 34.5868 26.3986 34.304C26.1671 33.9951 26.1925 33.5835 26.1411 33.2109C26.0644 32.644 26.1028 32.1173 25.961 31.5398L26 31.5392ZM22.503 31.5522C22.5414 31.9371 22.7475 32.1822 22.953 32.5548C23.3132 33.391 23.4933 34.3287 23.2488 35.2671C23.1591 35.5895 23.0563 35.8848 23.0173 36.193C22.94 35.639 23.0687 34.9842 22.9016 34.4581C22.7468 33.352 22.3866 32.3357 22.3612 31.2433C22.503 31.2557 22.4386 31.4624 22.503 31.5522ZM32.6097 31.6419C32.8796 32.3624 33.15 33.1212 33.6514 33.7383C33.2008 33.4554 32.8542 33.1979 32.3912 32.9021C32.1467 32.2844 31.7351 31.77 31.3625 31.1659C31.3242 31.1146 31.2208 31.1399 31.1954 31.0502C31.7611 31.0378 32.2241 31.2557 32.6097 31.6419ZM30.1927 31.0626C30.3982 31.1913 30.9256 31.385 30.8872 31.7447C30.9002 32.1952 31.1317 32.5672 31.196 32.9671C31.2474 33.1472 31.4015 33.3143 31.4789 33.4678C31.5946 33.5068 31.672 33.6869 31.8007 33.6869C31.8007 33.841 31.9809 33.7513 31.9679 33.906C32.0966 33.9827 32.1993 34.1375 32.3411 34.1505C32.3281 34.3436 32.5342 34.3813 32.5986 34.5361C32.0068 34.2148 31.4411 33.7909 30.8624 33.3923C30.7207 33.1218 30.3605 32.8519 30.3357 32.4923C30.1296 32.1699 30.0138 31.8233 29.8981 31.4643C29.8981 31.4513 29.3708 31.0001 29.3838 30.9233C29.7168 30.8311 29.9222 31.0502 30.1927 31.0626ZM28.3149 30.9604C28.534 31.0626 28.7394 31.2173 28.9579 31.3461C29.2538 31.4624 28.9963 31.8474 29.1894 32.0145C29.0477 32.6706 29.4345 33.339 29.4345 33.9815C29.4345 34.1622 29.4469 34.4321 29.3831 34.637C29.1647 34.1362 29.0099 33.5445 28.6367 33.1082C28.4696 32.5159 28.4058 31.8858 28.1997 31.3337C28.071 31.1022 27.7881 31.0626 27.6984 30.8193C27.9422 30.7803 28.0704 30.9858 28.3149 30.9604ZM26.9903 30.8311C27.4533 31.0762 27.4663 31.6803 27.6464 32.0919L27.9033 33.0822C28.071 33.4672 28.3279 33.7383 28.495 34.1362C28.521 34.5608 28.4182 34.9842 28.5983 35.4088L28.508 35.3964C28.4182 35.0999 28.2635 34.8171 28.1991 34.4952C28.1224 34.3547 27.9422 34.1752 27.8265 34.0341C27.4149 33.4288 27.0163 32.8507 27.0033 32.0919C26.8108 31.5522 26.528 31.1016 26.1547 30.664L25.9616 30.5866C26.3732 30.5229 26.6437 30.7543 26.9903 30.8311ZM9.54109 31.8994C9.27123 31.9631 9.00075 32.1952 8.67952 32.1179C9.15549 31.6939 9.54109 31.2179 9.87594 30.6782L10.0684 30.3687C10.0554 30.9468 9.86294 31.4624 9.54109 31.8994ZM20.3553 30.1503C20.9723 30.266 21.6544 30.266 22.2969 30.2146C22.6831 30.0853 23.1714 30.1503 23.583 30.1626C23.9946 30.201 24.4192 30.2146 24.7788 30.3817C24.9843 30.3817 25.1001 30.6392 25.3062 30.6262C25.6534 30.9994 25.6658 31.5404 25.615 32.0541C25.1514 32.9937 26.1937 33.5841 25.8335 34.5355C25.641 34.265 25.7178 33.7643 25.3959 33.5452C25.3959 33.4164 25.2802 33.2883 25.1644 33.1979C24.7782 32.6068 25.1898 31.9248 25.1254 31.2439C24.8946 30.9988 24.8946 30.5365 24.4056 30.6262C23.8399 31.1406 24.007 32.1309 24.1741 32.7746C24.2645 32.9937 24.2645 33.3143 24.3672 33.5841C24.3159 33.8033 24.3159 34.0471 24.1995 34.2532C24.2125 34.6271 24.007 34.9854 24.0968 35.3339C24.0194 34.7923 24.0708 34.1499 24.0584 33.5452C23.531 32.5938 23.1968 31.8226 22.6695 30.9227C22.425 30.6002 22.3866 30.7296 22.1551 30.6912C21.1908 31.9384 22.7079 33.1596 22.2325 34.5355C22.1291 34.0601 22.0004 33.5582 21.7825 33.1218C21.4861 32.8643 21.551 32.4657 21.3579 32.1445C21.2806 31.8226 21.3839 31.3863 21.1908 31.1158C21.1778 30.9227 20.9983 30.8323 20.8436 30.7166L20.6121 30.6522C20.419 30.755 20.393 30.9351 20.2773 31.0768C20.1999 31.6165 20.1231 32.2219 20.419 32.6972H20.3546C20.1999 32.5938 20.2389 32.4261 20.0978 32.285C19.9047 31.6809 19.943 30.9611 19.7116 30.305C19.6862 30.0481 19.3643 30.1515 19.3 29.92C19.6484 30.0209 19.9826 30.1379 20.3553 30.1503ZM13.2188 29.8928C13.1285 30.1886 13.0127 30.4325 12.897 30.7153C12.6395 31.2953 12.0868 31.783 11.7136 32.3234L10.9931 33.0172C10.7876 33.1206 10.4918 33.1076 10.2987 33.0432C10.1446 32.9268 9.95145 32.8631 9.8617 32.7343C10.2863 32.6322 10.6973 32.5412 11.0705 32.2974C11.5465 31.8988 12.0094 31.398 12.395 30.9345C12.5621 30.5359 12.8834 30.2908 13.1149 29.9318C13.1545 29.9188 13.1805 29.8804 13.2188 29.8928ZM18.2335 29.5325C18.478 29.7133 18.7998 29.9188 18.8896 30.24C18.993 30.742 18.6711 31.1659 18.5294 31.6159C18.5294 32.0925 18.8512 32.4391 18.8896 32.9021C18.8128 33.6479 18.478 34.278 18.1438 34.9087C18.0664 35.6793 17.2438 35.9745 16.922 36.6306H16.8576C17.0507 35.9479 17.7965 35.5759 17.9123 34.8685C18.028 34.3034 18.1568 33.7376 18.2465 33.1466C18.2465 32.9664 18.0924 32.8377 18.0664 32.67C17.963 32.6056 17.8349 32.5412 17.6932 32.5926C17.4227 32.709 17.2172 32.9145 17.0241 33.1466C16.9981 32.9015 17.2302 32.7473 17.2692 32.5152C17.5261 32.2967 17.5651 31.9879 17.8349 31.7824C17.9637 31.4866 17.9507 31.1393 18.1048 30.8565C18.1308 30.4201 18.1691 29.9182 18.1432 29.5319L18.2335 29.5325ZM17.6164 29.0962C17.6548 29.2379 17.8603 29.2757 17.8225 29.4688C17.9259 29.5845 17.7965 29.7653 17.7835 29.8804C17.2822 30.4975 16.961 31.3337 16.6131 32.0405C16.6007 32.4255 16.2919 32.774 16.1508 33.1466C16.0734 33.2877 15.9187 33.4034 15.7776 33.4158C16.1378 32.4911 16.4076 31.4878 16.8446 30.5365C16.9344 30.2146 17.1151 29.8166 16.9344 29.4818C16.7672 29.4304 16.7029 29.3017 16.5618 29.2119C16.4714 29.6501 16.2015 30.0098 16.1502 30.5235C15.9824 31.1282 15.6612 31.6549 15.3913 32.1952C15.2626 32.5678 15.0311 32.8513 14.7742 33.1596H14.6969C14.9284 32.7096 15.0441 32.2089 15.2496 31.7453C15.314 31.45 15.4167 31.2309 15.4941 30.9097C15.5071 30.781 15.4811 30.6522 15.4297 30.5365C15.1079 30.4585 15.1209 30.9611 14.8126 30.8837C14.7223 30.6522 14.9284 30.5365 14.9284 30.3174C15.1475 29.8043 15.3146 29.2639 15.6104 28.7991C16.0344 28.4636 16.6905 28.6444 17.1281 28.7991L17.6164 29.0962ZM7.5351 28.8895C7.65146 28.9916 7.71521 29.0956 7.83157 29.2751C8.01106 29.4558 7.99868 29.7517 8.08843 29.9695C8.05006 30.3167 7.94669 30.664 7.65146 30.8831C7.65146 30.9988 7.54809 31.1146 7.45835 31.1536C7.16249 31.2303 6.87902 31.3337 6.57078 31.3467C6.3263 31.3857 6.00445 31.2303 5.73459 31.2303V31.1659L6.53241 31.1146C6.86726 30.8311 7.40697 30.8311 7.54871 30.3168C7.60008 29.9188 7.7672 29.3271 7.29123 29.0702C7.04675 28.8499 6.78989 28.6704 6.46804 28.632C6.42966 28.593 6.42966 28.5546 6.44204 28.5286C6.82826 28.6184 7.20087 28.6964 7.5351 28.8895ZM8.75689 28.4116C8.80826 28.515 8.88563 28.6048 8.97537 28.6957C9.03974 29.1086 9.07812 29.5202 8.89801 29.9188C8.74327 30.1243 8.53778 30.4455 8.33229 30.6516L8.2933 30.6132C8.37067 30.1626 8.64053 29.7517 8.53778 29.2633C8.35767 29.0442 8.33229 28.7341 8.08781 28.5924C7.80495 28.3473 7.41935 28.2569 7.05913 28.1275C7.02075 28.2309 6.85364 28.1535 6.76327 28.1795V28.0892C6.84064 28.1022 6.96876 28.1022 7.00776 28.0248C7.41935 28.0774 7.77896 27.7939 8.15156 28.0248C8.25431 28.0508 8.34467 28.1152 8.46041 28.1275L8.75689 28.4116ZM14.8132 28.2055C14.9804 28.4636 14.9934 28.9018 14.89 29.1853C14.9284 29.3914 14.7483 29.5072 14.7742 29.7133C14.6071 29.868 14.5941 30.1503 14.4394 30.3427C14.2469 30.3168 14.388 30.0853 14.3237 29.9695C14.0278 30.5619 13.5518 31.0626 13.269 31.6543C13.1792 31.7317 13.1402 31.8734 13.0121 31.8734C12.9477 31.4878 13.3723 31.2303 13.3593 30.8311C13.4881 30.7927 13.4497 30.5359 13.5778 30.4207C13.5908 30.0209 13.8997 29.7647 13.9251 29.3531C14.1442 28.9538 14.0538 28.4116 14.0798 27.9468C13.9641 27.8447 14.0284 27.677 13.9127 27.5742H14.003L14.8132 28.2055ZM10.2355 27.4975C10.3643 27.703 10.441 27.9604 10.6471 28.1535C10.6601 28.3615 10.7499 28.6444 10.8143 28.7991H10.9046C10.8019 29.3147 11.0204 29.881 10.8019 30.3434C10.7115 30.5365 10.7375 30.8063 10.5574 30.9351L10.493 30.8447C10.6855 30.3167 10.5704 29.6625 10.4287 29.1339C10.4287 29.0442 10.3389 29.0182 10.2615 28.9922C9.97868 29.2633 9.79919 29.5982 9.63145 29.9194C9.56708 29.9701 9.46434 29.9194 9.41297 29.9968C9.45134 29.829 9.52871 29.7776 9.58008 29.6365C9.59308 29.4174 9.61846 29.1983 9.73482 29.0182C9.77319 28.5416 9.82518 27.9734 9.79919 27.5482L9.9533 27.3297C10.0041 27.4325 10.1458 27.4325 10.2355 27.4975ZM13.4887 27.4325C13.4887 27.9351 13.1025 28.2687 13.0771 28.7601L12.7943 29.3531C12.0738 29.8804 11.7909 30.8057 11.1479 31.4364C10.9931 31.6673 10.6979 31.9241 10.4274 31.9755C10.839 31.6537 11.1225 31.1653 11.3663 30.7283C11.5335 30.0976 11.5855 29.4038 11.7909 28.7979C12.0614 28.5781 12.2929 28.2947 12.46 27.9982C12.5114 27.9722 12.5504 28.0242 12.5634 28.0632L12.525 28.6437C12.6024 28.6307 12.6408 28.7471 12.7051 28.6821C12.8339 28.5534 12.8085 28.3856 12.8982 28.268C12.8722 27.9208 12.8852 27.5222 13.1167 27.2524C13.2962 27.188 13.4887 27.214 13.4887 27.4325ZM6.81527 27.3297L6.85426 27.3941C6.22356 27.7549 5.58109 28.0508 4.95101 28.5026C4.95101 28.4246 4.87364 28.2439 5.01538 28.2062C5.64546 27.9734 5.95432 26.9831 6.76451 27.2146L6.81527 27.3297ZM11.8169 26.301C11.8039 26.4428 11.7526 26.5715 11.7656 26.7256C11.6752 26.9318 11.5081 27.0085 11.4437 27.2016C11.328 27.3433 11.1992 27.4071 11.0451 27.4981C11.0061 27.0995 11.4437 26.8166 11.2252 26.4434C11.1225 26.3017 11.0705 26.1599 10.9548 26.0578C10.9931 25.8901 11.2252 25.9674 11.3793 25.9291C11.5731 25.9798 11.7916 26.0819 11.8169 26.301ZM12.5114 26.3654C12.4984 26.5462 12.5374 26.6873 12.6141 26.829C12.4346 27.2016 12.5114 27.8063 12.0614 28.0638H11.7656C11.6622 27.9728 11.5855 27.8961 11.5601 27.7413C11.7656 27.2784 12.0738 26.8414 12.1128 26.2887C12.0738 26.1216 12.0484 25.9674 11.9841 25.7997C12.3573 25.7873 12.3313 26.1593 12.5114 26.3654ZM12.2935 25.2724C12.5888 25.6066 12.975 25.9025 12.988 26.3524C12.962 26.3654 12.9236 26.34 12.8976 26.3784C13.0004 26.3914 12.975 26.5072 13.0004 26.5591C13.5147 26.764 14.1194 26.7009 14.5044 27.1762C14.8906 27.305 15.1611 27.7549 15.5337 27.9474C16.1124 27.9994 16.7425 27.9357 17.2952 28.0774C17.8485 28.4896 18.4656 28.7731 19.0697 29.1216L20.3175 29.4824C21.6804 29.6242 23.0817 29.4954 24.4452 29.444C25.3198 29.418 26.1937 29.7151 27.0039 29.9584C27.8915 30.1515 28.9332 30.1001 29.8715 30.0487C30.4502 30.1001 31.0803 30.1521 31.62 30.2419C32.0446 30.3186 32.4816 30.37 32.8802 30.4603V30.5247C33.9349 30.6151 34.102 31.6048 35.0025 32.004C35.0923 32.0944 35.0923 32.2998 35.2464 32.2998C35.6196 32.7244 36.0696 33.0197 36.4818 33.3935L37.7154 33.8181C38.3591 33.9586 39.1303 33.9079 39.7857 33.8689C39.9918 33.7011 40.2363 33.573 40.4672 33.5352C40.5445 33.2134 40.9431 33.2004 40.9821 32.8532C41.4191 32.5307 41.3424 31.2068 41.1882 30.8336C41.1499 30.5767 40.854 30.4232 40.854 30.1527C40.2369 29.4707 39.5808 28.9693 38.7836 28.5175C38.4104 28.3497 38.1659 28.2451 37.716 28.0663C36.7777 27.9245 35.8133 27.8212 34.849 27.7438C33.5759 27.6924 32.4828 27.9245 31.2486 27.9499H27.8797L26.7347 27.732C26.4908 27.6287 26.4518 27.5903 26.221 27.4616C25.4881 27.2041 24.8061 26.8321 24.0219 26.6904C23.9315 26.613 23.8294 26.5356 23.726 26.4843C23.7904 26.2658 24.0732 26.3295 24.1766 26.111C24.3697 26.137 24.4855 25.9953 24.6526 25.9953L25.7586 26.0083C26.4401 26.1618 27.0832 26.4069 27.7002 26.7281C28.4974 26.8439 29.2693 27.2041 30.1178 26.9732C31.5191 26.7925 32.934 26.7801 34.3483 26.7281C35.2353 26.8055 36.1482 26.8185 37.0098 26.9602C39.1959 27.5006 41.8833 28.4661 42.6291 30.8342C43.3496 33.3551 40.6615 35.6947 38.1282 35.0529C37.5111 35.0009 36.9838 34.7812 36.4181 34.5893C36.4564 35.1686 36.8816 35.6681 37.0995 36.2481C37.2926 37.1604 37.6652 37.8808 38.0131 38.7678C38.3863 39.18 38.6691 39.7457 39.1185 40.1183C39.2089 40.5689 39.7362 40.4148 39.9807 40.7348C40.4183 40.9279 40.945 40.9929 41.4333 41.0956C41.4333 41.4162 41.5881 41.6613 41.6135 41.9696C41.7936 42.6257 42.1668 43.205 42.4496 43.8864C42.1798 44.5815 41.4463 45.1844 41.2662 45.9698L36.4181 45.9946C36.431 45.3639 36.6625 44.7858 37.2029 44.4138C37.807 44.1043 38.3987 43.7695 39.1315 43.7571C39.1829 43.7317 39.1445 43.6797 39.1575 43.6407C39.0158 43.4742 38.8486 43.3065 38.7849 43.101C38.515 42.7934 38.1548 42.4715 37.9363 42.1231C36.8686 41.6613 35.9687 40.9799 34.9784 40.3882C34.7339 40.2204 34.6565 39.9636 34.4511 39.7705C33.8847 39.3323 33.332 38.9101 32.8183 38.3308C31.9821 37.8035 30.9404 37.3535 30.0151 37.1096C28.1248 37.0057 26.8387 37.3145 25.2697 37.8542C24.5752 38.0343 23.8424 38.0343 23.2507 37.9322C23.0582 37.6754 23.0192 37.3529 22.8911 37.07C22.9294 36.8392 22.6466 36.7872 22.5178 36.6194C21.8878 36.4393 21.2447 35.8996 20.7173 35.4106C20.8844 35.514 20.8331 35.8872 21.0646 35.9504C21.3474 36.3502 21.7714 36.5934 22.1316 36.8392C22.2857 36.8509 22.4145 36.9029 22.5048 37.0317C22.5178 37.7775 22.9164 38.3172 23.0322 39.0519C23.4822 39.7333 23.5849 40.6067 24.1636 41.3265C24.3307 41.4682 24.3951 41.8545 24.6012 42.0216L24.8581 42.2648L24.8841 44.9659C24.9484 45.1844 24.9354 45.4165 25.0895 45.609C25.2567 45.5823 25.347 45.3781 25.4498 45.2487C25.6169 44.8749 25.7456 44.8749 25.9901 44.5413C26.4017 44.2844 26.916 43.9886 27.327 44.0523C27.5845 44.0907 27.7002 43.8215 27.9447 43.7955C28.2536 43.4742 28.6386 42.9345 29.1021 42.8064C29.359 42.5613 29.5267 42.4975 29.835 42.1887C29.7192 41.5196 29.2953 40.8759 29.1919 40.1437C29.2303 39.3316 28.7419 38.5103 29.1919 37.7905C29.1275 37.6227 29.3466 37.6877 29.424 37.6357C29.9123 37.6877 30.4013 37.6995 30.8513 37.8666C31.495 37.9446 31.9703 38.3042 32.5484 38.5103C32.9086 38.8062 33.2559 39.2165 33.6805 39.539C33.7058 39.7067 33.9503 39.7699 33.9373 39.8868C33.6805 40.0917 33.7312 40.4526 33.41 40.5943C33.0114 41.225 32.7799 41.9318 32.5738 42.6393C32.5738 42.8961 32.4581 43.1134 32.4321 43.3467C32.1622 43.7961 31.6732 43.8864 31.5835 43.9632C30.8253 44.5289 30.7219 45.3905 29.9891 45.9302H20.0984C20.5744 44.1173 21.5127 44.3222 22.1298 44.0022C22.2201 43.7577 22.2585 43.3845 22.4002 43.1654C22.503 42.9351 22.3359 42.8441 22.1558 42.781C21.6024 42.1751 21.1141 41.4045 20.484 40.8388C20.2525 40.4142 19.7895 40.2211 19.4293 39.9506C18.5807 39.5396 17.7062 39.063 17.0377 38.2788C16.922 38.2528 16.896 38.1006 16.8192 38.0083C15.8413 37.3925 14.7359 37.1468 13.7072 36.685C12.7813 36.0673 12.1128 35.3215 11.2766 34.5887L10.6849 33.3669C10.2225 33.058 9.61784 32.9423 9.32198 32.4273C8.82002 32.1965 8.21593 32.389 7.76596 32.0547C7.75296 32.0287 7.73997 32.0034 7.71459 31.9774C7.85633 31.9006 7.98445 31.8356 8.15156 31.8233C8.2933 31.5788 8.49879 31.4507 8.71728 31.3349C8.76927 31.2965 8.75627 31.2185 8.75627 31.1672C8.65291 31.1028 8.57554 30.9357 8.40842 30.9871C7.53386 32.0671 7.93308 31.3609 6.81403 31.952C6.40243 31.939 5.93946 32.0937 5.57986 31.8876C5.37437 31.8876 5.39974 31.6951 5.31 31.5664C5.42574 31.2835 5.25862 30.9617 5.31 30.6268C5.37437 30.6268 5.42574 30.6398 5.47711 30.6138C5.42574 30.5755 5.36137 30.5878 5.31 30.5631C5.27162 30.4084 5.36137 30.305 5.47711 30.2022C5.64423 30.318 5.42574 30.768 5.79896 30.6398C5.9277 30.794 6.08182 30.6268 6.22294 30.6268C6.41605 30.6268 6.68591 30.6652 6.7119 30.422C6.89201 30.3694 7.14888 30.2159 7.18725 29.9974C7.25162 29.7783 7.31599 29.5598 7.29061 29.2893C7.20025 29.1092 7.04613 29.0572 6.95577 28.8393C6.81403 28.8641 6.67291 28.8133 6.54417 28.7737C5.93946 28.7094 5.42512 28.8907 4.84703 28.8765L4.62854 28.7873C4.76966 28.3485 4.70591 28.2965 4.64154 27.9734C4.87302 27.8453 5.05314 27.6262 5.20725 27.4201C5.20725 27.4071 5.27162 26.8544 5.25862 26.7256C5.5291 26.5585 5.60585 26.5325 5.85033 26.4174C6.53179 26.2887 6.98238 26.6489 7.59885 26.6619C7.97269 26.7523 8.3063 26.9058 8.71789 26.9058C8.79526 26.9831 8.937 26.9318 9.01375 27.0345H9.27123C9.21924 26.8668 9.19386 26.6353 9.20686 26.4174C9.0905 26.2627 8.83364 26.2107 8.7049 26.1593C8.16456 26.2627 7.58647 26.2627 7.00776 26.2627C7.1105 26.2107 7.08451 25.9798 7.26462 25.9668C7.41935 25.8765 7.4961 25.6574 7.68921 25.6703C7.94669 25.4395 8.37067 25.5546 8.7049 25.4909C9.41235 25.6066 10.1582 25.5422 10.9164 25.5812C11.1479 25.4395 11.3663 25.2977 11.6492 25.2717C11.8306 25.0793 12.0614 25.3237 12.2935 25.2724ZM4.65515 26.7516C4.65515 27.0085 4.61678 27.2276 4.41067 27.3941C4.24294 27.4461 4.01145 27.6002 3.84434 27.4201H3.85734C3.84434 27.2914 3.79297 27.1502 3.79297 26.9707C3.89571 26.7516 4.21694 26.764 4.35868 26.6619C4.48804 26.6353 4.56479 26.6873 4.65515 26.7516ZM6.04344 29.2751C5.87571 29.3271 5.90233 29.1463 5.79896 29.0826C5.7086 29.2373 5.82496 29.4812 5.69622 29.6495C5.52848 29.5592 5.45112 29.3401 5.36137 29.1853C5.18126 29.2627 5.25801 29.4812 5.16826 29.6495C5.07789 29.6105 4.97515 29.5332 4.96277 29.4304C4.91078 29.3147 4.80803 29.1983 4.80803 29.0442L6.0942 28.9922C6.10781 29.0826 6.09482 29.1983 6.04344 29.2751ZM6.84126 29.8036C6.67353 30.1509 6.37829 30.5625 5.91532 30.5625V30.2146C6.14619 29.9188 6.46804 29.8036 6.84126 29.8036Z" fill="#9AADBB"/>
<path fill-rule="evenodd" clip-rule="evenodd" d="M67.9465 12.4169H66.3447V3.77893H73.5857V12.4169H71.9845V5.20993H67.9465V12.4169Z" fill="#BAC9D4"/>
<path fill-rule="evenodd" clip-rule="evenodd" d="M76.0762 4.18806C77.0133 3.79627 78.5637 3.54065 79.705 3.54065C82.4649 3.54065 83.7263 4.54581 83.7263 8.07255C83.7263 11.5993 82.3974 12.6558 79.8926 12.6558C78.802 12.6558 78.1205 12.3494 77.678 12.0424V15.6886H76.0762V4.18806ZM77.678 10.2017C77.678 10.8665 78.5977 11.2409 79.705 11.2409C81.4597 11.2409 82.0391 10.5935 82.0391 8.10597C82.0391 5.44823 81.4597 4.97103 79.705 4.97103C78.9895 4.97103 78.2227 5.07315 77.678 5.27802V10.2017Z" fill="#BAC9D4"/>
<path fill-rule="evenodd" clip-rule="evenodd" d="M91.6512 6.3853C90.4585 8.48104 88.9588 10.6108 87.5625 12.4169H85.9434V3.77893H87.5619V10.0488C88.9588 8.24274 90.3898 5.96008 91.6506 3.77893H93.2518V12.4169H91.6506V6.3853H91.6512Z" fill="#BAC9D4"/>
<path fill-rule="evenodd" clip-rule="evenodd" d="M103.136 3.77893H105.504V12.4169H103.92V5.44884C102.983 7.44245 101.96 9.91265 101.262 11.8549H99.9332C99.2004 9.87861 98.2125 7.39108 97.3435 5.44884V12.4169H95.7417V3.77893H98.1952C99.0982 5.68713 99.9158 7.578 100.699 9.5549C101.466 7.54396 102.25 5.6698 103.136 3.77893Z" fill="#BAC9D4"/>
<path fill-rule="evenodd" clip-rule="evenodd" d="M107.723 8.05522C107.723 4.52848 109.035 3.54065 111.744 3.54065C114.47 3.54065 115.765 4.52848 115.765 8.05522C115.765 11.5993 114.488 12.6552 111.744 12.6552C109.018 12.6552 107.723 11.5993 107.723 8.05522ZM109.427 8.08926C109.427 10.6789 109.989 11.275 111.744 11.275C113.499 11.275 114.062 10.6789 114.062 8.08926C114.062 5.38015 113.499 4.92027 111.744 4.92027C109.989 4.92027 109.427 5.38015 109.427 8.08926Z" fill="#BAC9D4"/>
<path fill-rule="evenodd" clip-rule="evenodd" d="M117.999 4.18806C118.936 3.79627 120.487 3.54065 121.628 3.54065C124.388 3.54065 125.649 4.54581 125.649 8.07255C125.649 11.5993 124.32 12.6558 121.815 12.6558C120.725 12.6558 120.043 12.3494 119.601 12.0424V15.6886H117.999V4.18806ZM119.601 10.2017C119.601 10.8665 120.521 11.2409 121.628 11.2409C123.383 11.2409 123.962 10.5935 123.962 8.10597C123.962 5.44823 123.383 4.97103 121.628 4.97103C120.912 4.97103 120.146 5.07315 119.601 5.27802V10.2017Z" fill="#BAC9D4"/>
<path fill-rule="evenodd" clip-rule="evenodd" d="M134.392 12.1953C133.727 12.485 132.62 12.6552 131.836 12.6552C129.179 12.6552 127.611 11.5987 127.611 8.05522C127.611 4.52848 129.195 3.54065 131.836 3.54065C132.621 3.54065 133.745 3.71086 134.392 3.94977L133.966 5.38077C133.387 5.12514 132.621 4.98898 131.904 4.98898C130.15 4.98898 129.315 5.41481 129.315 8.08988C129.315 10.6288 130.15 11.2075 131.904 11.2075C132.654 11.2075 133.387 11.02 133.966 10.7817L134.392 12.1953Z" fill="#BAC9D4"/>
<path fill-rule="evenodd" clip-rule="evenodd" d="M141.447 12.4169C139.761 9.17982 138.585 8.51508 137.461 8.2935V12.4169H135.859V3.77893H137.461V7.93575C138.176 7.25429 139.573 5.6698 141.158 3.77893H143.117C141.294 6.01084 140.068 7.35704 139.556 7.71479C140.476 8.07253 141.294 8.53241 143.356 12.4169H141.447Z" fill="#BAC9D4"/>
<path fill-rule="evenodd" clip-rule="evenodd" d="M150.326 6.3853C149.133 8.48104 147.634 10.6108 146.237 12.4169H144.619V3.77893H146.237V10.0488C147.634 8.24274 149.065 5.96008 150.326 3.77893H151.927V12.4169H150.326V6.3853Z" fill="#BAC9D4"/>
<path fill-rule="evenodd" clip-rule="evenodd" d="M160.108 6.38555C158.915 8.48129 157.415 10.6111 156.019 12.4171H154.4V3.77918H156.019V10.0491C157.416 8.243 158.847 5.96034 160.108 3.77918H161.709V12.4171H160.108V6.38555ZM156.871 0.542114C156.871 1.42782 157.28 1.63269 158.115 1.63269C158.813 1.63269 159.392 1.44515 159.359 0.542114H160.483C160.483 2.09257 159.665 2.79073 158.081 2.79073C156.53 2.79073 155.678 2.09257 155.678 0.542114H156.871Z" fill="#BAC9D4"/>
<path fill-rule="evenodd" clip-rule="evenodd" d="M170.47 12.4169C168.783 9.17982 167.608 8.51508 166.483 8.2935V12.4169H164.882V3.77893H166.483V7.93575C167.199 7.25429 168.596 5.6698 170.181 3.77893H172.14C170.317 6.01084 169.09 7.35704 168.579 7.71479C169.499 8.07253 170.317 8.53241 172.378 12.4169H170.47Z" fill="#BAC9D4"/>
<path fill-rule="evenodd" clip-rule="evenodd" d="M173.658 4.18806C174.595 3.79627 176.146 3.54065 177.287 3.54065C180.047 3.54065 181.308 4.54581 181.308 8.07255C181.308 11.5993 179.979 12.6558 177.475 12.6558C176.384 12.6558 175.703 12.3494 175.259 12.0424V15.6886H173.658V4.18806ZM175.259 10.2017C175.259 10.8665 176.179 11.2409 177.286 11.2409C179.041 11.2409 179.62 10.5935 179.62 8.10597C179.62 5.44823 179.041 4.97103 177.286 4.97103C176.571 4.97103 175.803 5.07315 175.259 5.27802V10.2017Z" fill="#BAC9D4"/>
<path fill-rule="evenodd" clip-rule="evenodd" d="M190.476 11.9736C189.454 12.3995 187.937 12.6551 186.779 12.6551C184.172 12.6551 183.201 12.0077 183.201 9.75843C183.201 7.30494 184.632 6.91315 186.608 6.91315C187.426 6.91315 188.091 6.99857 188.909 7.16878C188.909 5.3627 188.449 4.97091 186.558 4.97091C185.671 4.97091 184.7 5.09037 184.002 5.3627L183.661 3.96575C184.427 3.76088 185.603 3.53992 186.813 3.53992C189.352 3.53992 190.476 4.28946 190.476 6.89644V11.9736ZM188.909 8.3621C188.364 8.22593 187.632 8.17456 186.899 8.17456C185.434 8.17456 184.939 8.32806 184.939 9.67364C184.939 11.1213 185.331 11.3429 186.881 11.3429C187.597 11.3429 188.33 11.2068 188.909 11.0025V8.3621Z" fill="#BAC9D4"/>
<path fill-rule="evenodd" clip-rule="evenodd" d="M198.623 6.38555C197.43 8.48129 195.931 10.6111 194.534 12.4171H192.917V3.77918H194.534V10.0491C195.932 8.243 197.362 5.96034 198.623 3.77918H200.225V12.4171H198.623V6.38555ZM195.386 0.542114C195.386 1.42782 195.795 1.63269 196.63 1.63269C197.328 1.63269 197.907 1.44515 197.874 0.542114H198.998C198.998 2.09257 198.18 2.79073 196.595 2.79073C195.045 2.79073 194.193 2.09257 194.193 0.542114H195.386Z" fill="#BAC9D4"/>
<path fill-rule="evenodd" clip-rule="evenodd" d="M146.054 23.5923H126.327C126.137 23.5923 125.979 23.7476 125.97 23.9395C125.474 33.0312 123.795 42.8241 121.365 50.8251C121.331 50.9328 121.351 51.0548 121.418 51.1495C121.484 51.2405 121.593 51.2974 121.707 51.2974H128.457C128.613 51.2974 128.753 51.1946 128.801 51.0418C130.691 44.8759 132.208 36.8667 132.783 30.0466H139.258V50.931C139.258 51.1309 139.42 51.2962 139.615 51.2962H146.055C146.255 51.2962 146.413 51.1309 146.413 50.931V23.9618C146.414 23.7588 146.255 23.5923 146.054 23.5923Z" fill="#BAC9D4" stroke="#BAC9D4" stroke-width="0.618943"/>
<path fill-rule="evenodd" clip-rule="evenodd" d="M229.474 23.5923H223.039C222.841 23.5923 222.68 23.7569 222.68 23.9618V44.8282C221.264 45.2324 219.855 45.4273 218.264 45.4273C213.995 45.4273 213.013 44.0979 213.013 38.3219V23.9618C213.013 23.7588 212.854 23.5923 212.653 23.5923H206.216C206.017 23.5923 205.858 23.7569 205.858 23.9618V39.0108C205.858 48.4243 208.97 52.0934 216.964 52.0934C221.513 52.0934 226.589 50.9087 229.602 49.7364C229.742 49.6801 229.836 49.547 229.836 49.3966V23.9618C229.834 23.7588 229.673 23.5923 229.474 23.5923Z" fill="#BAC9D4" stroke="#BAC9D4" stroke-width="0.618943"/>
<path fill-rule="evenodd" clip-rule="evenodd" d="M92.4935 23.622H85.9544C85.7897 23.622 85.6449 23.7353 85.6071 23.8987C84.571 28.0567 82.4932 34.987 79.7018 42.2509L73.1299 23.8343C73.0785 23.6907 72.9467 23.5917 72.7938 23.5917H66.1717C66.0572 23.5917 65.9452 23.6511 65.8808 23.7501C65.8121 23.8479 65.7948 23.9742 65.8344 24.0862L75.6731 51.6533C74.6456 53.7651 73.7222 55.5155 72.8297 57.212C72.1724 58.4604 71.533 59.6692 70.8874 60.9628C70.8311 61.0761 70.8367 61.2098 70.9004 61.3187C70.9673 61.427 71.0812 61.4932 71.208 61.4932H78.3735C78.5079 61.4932 78.6285 61.4165 78.6923 61.2921C79.9085 58.9092 81.4076 55.5991 82.8052 52.2103C86.9874 42.173 90.3637 32.7112 92.8382 24.0893C92.8723 23.9773 92.8506 23.8572 92.7832 23.7631C92.7138 23.674 92.6086 23.622 92.4935 23.622Z" fill="#BAC9D4" stroke="#BAC9D4" stroke-width="0.618943"/>
<path fill-rule="evenodd" clip-rule="evenodd" d="M115.88 44.168C115.845 44.0764 115.78 43.999 115.692 43.9606C115.604 43.9179 115.506 43.9154 115.416 43.9495C113.842 44.54 110.899 45.0234 108.852 45.0234C104.363 45.0234 102.227 43.7879 102.227 36.7623C102.227 31.1436 102.881 28.4994 108.852 28.4994C110.545 28.4994 112.118 28.7514 114.111 29.3393C114.276 29.3858 114.448 29.3109 114.531 29.1599C115.277 27.7295 116.177 25.9822 117.193 23.8394C117.238 23.7453 117.238 23.6321 117.199 23.5343C117.16 23.4408 117.077 23.3635 116.98 23.3319C114.337 22.474 111.199 21.9789 108.38 21.9789C98.9802 21.9789 94.7881 26.5052 94.7881 36.6534C94.7881 46.9526 98.9802 51.5421 108.38 51.5421C110.735 51.5421 115.379 51.0395 117.617 50.1253C117.797 50.0523 117.888 49.848 117.822 49.658L115.88 44.168Z" fill="#BAC9D4" stroke="#BAC9D4" stroke-width="0.618943"/>
<path fill-rule="evenodd" clip-rule="evenodd" d="M177.812 23.622H171.271C171.104 23.622 170.962 23.7353 170.921 23.8987C169.885 28.0604 167.81 34.9914 165.02 42.2509L158.449 23.8343C158.397 23.6907 158.261 23.5917 158.113 23.5917H151.489C151.374 23.5917 151.263 23.6511 151.194 23.7501C151.128 23.8479 151.112 23.9742 151.149 24.0862L160.989 51.6533C159.963 53.7608 159.042 55.5081 158.152 57.2021C157.491 58.453 156.852 59.6637 156.204 60.9616C156.146 61.0748 156.152 61.2085 156.217 61.3187C156.282 61.4258 156.401 61.492 156.524 61.492H163.687C163.82 61.492 163.945 61.4153 164.008 61.2921C165.222 58.9116 166.72 55.6015 168.12 52.2091C172.296 42.1897 175.673 32.7279 178.153 24.0881C178.186 23.976 178.166 23.856 178.099 23.7619C178.029 23.674 177.921 23.622 177.812 23.622Z" fill="#BAC9D4" stroke="#BAC9D4" stroke-width="0.618943"/>
<path fill-rule="evenodd" clip-rule="evenodd" d="M201.932 23.5923H182.876C182.677 23.5923 182.517 23.7569 182.517 23.9618V50.9328C182.517 51.1334 182.677 51.298 182.876 51.298H189.311C189.508 51.298 189.67 51.1334 189.67 50.9328V30.0479H199.622C199.766 30.0479 199.898 29.9606 199.951 29.8281C200.71 28.006 201.485 26.0755 202.264 24.098C202.31 23.9859 202.295 23.856 202.231 23.7588C202.163 23.6579 202.05 23.5923 201.932 23.5923Z" fill="#BAC9D4" stroke="#BAC9D4" stroke-width="0.618943"/>
</svg>
